<?xml version="1.0" encoding="utf-8"?>
<svg xmlns="http://www.w3.org/2000/svg" xmlns:xlink="http://www.w3.org/1999/xlink" width="700" height="350" viewBox="0 0 2800 1400">
<defs>
  <clipPath id="clip860">
    <rect x="0" y="0" width="2800" height="1400"/>
  </clipPath>
</defs>
<path clip-path="url(#clip860)" d="M0 1400 L2800 1400 L2800 0 L0 0  Z" fill="#ffffff" fill-rule="evenodd" fill-opacity="1"/>
<defs>
  <clipPath id="clip861">
    <rect x="1727" y="108" width="1026" height="1138"/>
  </clipPath>
</defs>
<path clip-path="url(#clip860)" d="M269.903 1245.7 L1294.7 1245.7 L1294.7 108.352 L269.903 108.352  Z" fill="#ffffff" fill-rule="evenodd" fill-opacity="1"/>
<defs>
  <clipPath id="clip862">
    <rect x="269" y="108" width="1026" height="1138"/>
  </clipPath>
</defs>
<polyline clip-path="url(#clip862)" style="stroke:#000000; stroke-linecap:round; stroke-linejoin:round; stroke-width:2; stroke-opacity:0.1; fill:none" points="298.906,1245.7 298.906,108.352 "/>
<polyline clip-path="url(#clip862)" style="stroke:#000000; stroke-linecap:round; stroke-linejoin:round; stroke-width:2; stroke-opacity:0.1; fill:none" points="540.605,1245.7 540.605,108.352 "/>
<polyline clip-path="url(#clip862)" style="stroke:#000000; stroke-linecap:round; stroke-linejoin:round; stroke-width:2; stroke-opacity:0.1; fill:none" points="782.303,1245.7 782.303,108.352 "/>
<polyline clip-path="url(#clip862)" style="stroke:#000000; stroke-linecap:round; stroke-linejoin:round; stroke-width:2; stroke-opacity:0.1; fill:none" points="1024,1245.7 1024,108.352 "/>
<polyline clip-path="url(#clip862)" style="stroke:#000000; stroke-linecap:round; stroke-linejoin:round; stroke-width:2; stroke-opacity:0.1; fill:none" points="1265.7,1245.7 1265.7,108.352 "/>
<polyline clip-path="url(#clip862)" style="stroke:#000000; stroke-linecap:round; stroke-linejoin:round; stroke-width:2; stroke-opacity:0.1; fill:none" points="269.903,1115.47 1294.7,1115.47 "/>
<polyline clip-path="url(#clip862)" style="stroke:#000000; stroke-linecap:round; stroke-linejoin:round; stroke-width:2; stroke-opacity:0.1; fill:none" points="269.903,862.296 1294.7,862.296 "/>
<polyline clip-path="url(#clip862)" style="stroke:#000000; stroke-linecap:round; stroke-linejoin:round; stroke-width:2; stroke-opacity:0.1; fill:none" points="269.903,609.125 1294.7,609.125 "/>
<polyline clip-path="url(#clip862)" style="stroke:#000000; stroke-linecap:round; stroke-linejoin:round; stroke-width:2; stroke-opacity:0.1; fill:none" points="269.903,355.954 1294.7,355.954 "/>
<polyline clip-path="url(#clip860)" style="stroke:#000000; stroke-linecap:round; stroke-linejoin:round; stroke-width:4; stroke-opacity:1; fill:none" points="269.903,1245.7 1294.7,1245.7 "/>
<polyline clip-path="url(#clip860)" style="stroke:#000000; stroke-linecap:round; stroke-linejoin:round; stroke-width:4; stroke-opacity:1; fill:none" points="298.906,1245.7 298.906,1226.8 "/>
<polyline clip-path="url(#clip860)" style="stroke:#000000; stroke-linecap:round; stroke-linejoin:round; stroke-width:4; stroke-opacity:1; fill:none" points="540.605,1245.7 540.605,1226.8 "/>
<polyline clip-path="url(#clip860)" style="stroke:#000000; stroke-linecap:round; stroke-linejoin:round; stroke-width:4; stroke-opacity:1; fill:none" points="782.303,1245.7 782.303,1226.8 "/>
<polyline clip-path="url(#clip860)" style="stroke:#000000; stroke-linecap:round; stroke-linejoin:round; stroke-width:4; stroke-opacity:1; fill:none" points="1024,1245.7 1024,1226.8 "/>
<polyline clip-path="url(#clip860)" style="stroke:#000000; stroke-linecap:round; stroke-linejoin:round; stroke-width:4; stroke-opacity:1; fill:none" points="1265.7,1245.7 1265.7,1226.8 "/>
<path clip-path="url(#clip860)" d="M273.594 1307.36 L281.233 1307.36 L281.233 1281 L272.923 1282.67 L272.923 1278.41 L281.187 1276.74 L285.863 1276.74 L285.863 1307.36 L293.501 1307.36 L293.501 1311.3 L273.594 1311.3 L273.594 1307.36 Z" fill="#000000" fill-rule="nonzero" fill-opacity="1" /><path clip-path="url(#clip860)" d="M312.946 1279.82 Q309.335 1279.82 307.506 1283.38 Q305.7 1286.92 305.7 1294.05 Q305.7 1301.16 307.506 1304.73 Q309.335 1308.27 312.946 1308.27 Q316.58 1308.27 318.385 1304.73 Q320.214 1301.16 320.214 1294.05 Q320.214 1286.92 318.385 1283.38 Q316.58 1279.82 312.946 1279.82 M312.946 1276.11 Q318.756 1276.11 321.811 1280.72 Q324.89 1285.3 324.89 1294.05 Q324.89 1302.78 321.811 1307.39 Q318.756 1311.97 312.946 1311.97 Q307.136 1311.97 304.057 1307.39 Q301.001 1302.78 301.001 1294.05 Q301.001 1285.3 304.057 1280.72 Q307.136 1276.11 312.946 1276.11 Z" fill="#000000" fill-rule="nonzero" fill-opacity="1" /><path clip-path="url(#clip860)" d="M515.79 1307.36 L523.429 1307.36 L523.429 1281 L515.119 1282.67 L515.119 1278.41 L523.383 1276.74 L528.059 1276.74 L528.059 1307.36 L535.697 1307.36 L535.697 1311.3 L515.79 1311.3 L515.79 1307.36 Z" fill="#000000" fill-rule="nonzero" fill-opacity="1" /><path clip-path="url(#clip860)" d="M545.188 1276.74 L563.544 1276.74 L563.544 1280.68 L549.47 1280.68 L549.47 1289.15 Q550.489 1288.8 551.507 1288.64 Q552.526 1288.45 553.545 1288.45 Q559.332 1288.45 562.711 1291.62 Q566.091 1294.8 566.091 1300.21 Q566.091 1305.79 562.619 1308.89 Q559.146 1311.97 552.827 1311.97 Q550.651 1311.97 548.382 1311.6 Q546.137 1311.23 543.73 1310.49 L543.73 1305.79 Q545.813 1306.92 548.035 1307.48 Q550.257 1308.04 552.734 1308.04 Q556.739 1308.04 559.077 1305.93 Q561.415 1303.82 561.415 1300.21 Q561.415 1296.6 559.077 1294.49 Q556.739 1292.39 552.734 1292.39 Q550.859 1292.39 548.984 1292.8 Q547.132 1293.22 545.188 1294.1 L545.188 1276.74 Z" fill="#000000" fill-rule="nonzero" fill-opacity="1" /><path clip-path="url(#clip860)" d="M761.076 1307.36 L777.396 1307.36 L777.396 1311.3 L755.451 1311.3 L755.451 1307.36 Q758.113 1304.61 762.697 1299.98 Q767.303 1295.33 768.484 1293.99 Q770.729 1291.46 771.609 1289.73 Q772.511 1287.97 772.511 1286.28 Q772.511 1283.52 770.567 1281.79 Q768.646 1280.05 765.544 1280.05 Q763.345 1280.05 760.891 1280.81 Q758.461 1281.58 755.683 1283.13 L755.683 1278.41 Q758.507 1277.27 760.961 1276.69 Q763.414 1276.11 765.451 1276.11 Q770.822 1276.11 774.016 1278.8 Q777.211 1281.49 777.211 1285.98 Q777.211 1288.11 776.4 1290.03 Q775.613 1291.92 773.507 1294.52 Q772.928 1295.19 769.826 1298.41 Q766.724 1301.6 761.076 1307.36 Z" fill="#000000" fill-rule="nonzero" fill-opacity="1" /><path clip-path="url(#clip860)" d="M797.21 1279.82 Q793.599 1279.82 791.771 1283.38 Q789.965 1286.92 789.965 1294.05 Q789.965 1301.16 791.771 1304.73 Q793.599 1308.27 797.21 1308.27 Q800.845 1308.27 802.65 1304.73 Q804.479 1301.16 804.479 1294.05 Q804.479 1286.92 802.65 1283.38 Q800.845 1279.82 797.21 1279.82 M797.21 1276.11 Q803.021 1276.11 806.076 1280.72 Q809.155 1285.3 809.155 1294.05 Q809.155 1302.78 806.076 1307.39 Q803.021 1311.97 797.21 1311.97 Q791.4 1311.97 788.322 1307.39 Q785.266 1302.78 785.266 1294.05 Q785.266 1285.3 788.322 1280.72 Q791.4 1276.11 797.21 1276.11 Z" fill="#000000" fill-rule="nonzero" fill-opacity="1" /><path clip-path="url(#clip860)" d="M1003.27 1307.36 L1019.59 1307.36 L1019.59 1311.3 L997.647 1311.3 L997.647 1307.36 Q1000.31 1304.61 1004.89 1299.98 Q1009.5 1295.33 1010.68 1293.99 Q1012.93 1291.46 1013.8 1289.73 Q1014.71 1287.97 1014.71 1286.28 Q1014.71 1283.52 1012.76 1281.79 Q1010.84 1280.05 1007.74 1280.05 Q1005.54 1280.05 1003.09 1280.81 Q1000.66 1281.58 997.879 1283.13 L997.879 1278.41 Q1000.7 1277.27 1003.16 1276.69 Q1005.61 1276.11 1007.65 1276.11 Q1013.02 1276.11 1016.21 1278.8 Q1019.41 1281.49 1019.41 1285.98 Q1019.41 1288.11 1018.6 1290.03 Q1017.81 1291.92 1015.7 1294.52 Q1015.12 1295.19 1012.02 1298.41 Q1008.92 1301.6 1003.27 1307.36 Z" fill="#000000" fill-rule="nonzero" fill-opacity="1" /><path clip-path="url(#clip860)" d="M1029.45 1276.74 L1047.81 1276.74 L1047.81 1280.68 L1033.74 1280.68 L1033.74 1289.15 Q1034.75 1288.8 1035.77 1288.64 Q1036.79 1288.45 1037.81 1288.45 Q1043.6 1288.45 1046.98 1291.62 Q1050.36 1294.8 1050.36 1300.21 Q1050.36 1305.79 1046.88 1308.89 Q1043.41 1311.97 1037.09 1311.97 Q1034.92 1311.97 1032.65 1311.6 Q1030.4 1311.23 1027.99 1310.49 L1027.99 1305.79 Q1030.08 1306.92 1032.3 1307.48 Q1034.52 1308.04 1037 1308.04 Q1041 1308.04 1043.34 1305.93 Q1045.68 1303.82 1045.68 1300.21 Q1045.68 1296.6 1043.34 1294.49 Q1041 1292.39 1037 1292.39 Q1035.12 1292.39 1033.25 1292.8 Q1031.4 1293.22 1029.45 1294.1 L1029.45 1276.74 Z" fill="#000000" fill-rule="nonzero" fill-opacity="1" /><path clip-path="url(#clip860)" d="M1254.54 1292.67 Q1257.9 1293.38 1259.77 1295.65 Q1261.67 1297.92 1261.67 1301.25 Q1261.67 1306.37 1258.15 1309.17 Q1254.63 1311.97 1248.15 1311.97 Q1245.98 1311.97 1243.66 1311.53 Q1241.37 1311.11 1238.92 1310.26 L1238.92 1305.74 Q1240.86 1306.88 1243.18 1307.46 Q1245.49 1308.04 1248.01 1308.04 Q1252.41 1308.04 1254.7 1306.3 Q1257.02 1304.56 1257.02 1301.25 Q1257.02 1298.2 1254.87 1296.49 Q1252.74 1294.75 1248.92 1294.75 L1244.89 1294.75 L1244.89 1290.91 L1249.1 1290.91 Q1252.55 1290.91 1254.38 1289.54 Q1256.21 1288.15 1256.21 1285.56 Q1256.21 1282.9 1254.31 1281.49 Q1252.44 1280.05 1248.92 1280.05 Q1247 1280.05 1244.8 1280.47 Q1242.6 1280.88 1239.96 1281.76 L1239.96 1277.6 Q1242.62 1276.86 1244.94 1276.49 Q1247.27 1276.11 1249.33 1276.11 Q1254.66 1276.11 1257.76 1278.55 Q1260.86 1280.95 1260.86 1285.07 Q1260.86 1287.94 1259.22 1289.93 Q1257.57 1291.9 1254.54 1292.67 Z" fill="#000000" fill-rule="nonzero" fill-opacity="1" /><path clip-path="url(#clip860)" d="M1280.54 1279.82 Q1276.93 1279.82 1275.1 1283.38 Q1273.29 1286.92 1273.29 1294.05 Q1273.29 1301.16 1275.1 1304.73 Q1276.93 1308.27 1280.54 1308.27 Q1284.17 1308.27 1285.98 1304.73 Q1287.81 1301.16 1287.81 1294.05 Q1287.81 1286.92 1285.98 1283.38 Q1284.17 1279.82 1280.54 1279.82 M1280.54 1276.11 Q1286.35 1276.11 1289.4 1280.72 Q1292.48 1285.3 1292.48 1294.05 Q1292.48 1302.78 1289.4 1307.39 Q1286.35 1311.97 1280.54 1311.97 Q1274.73 1311.97 1271.65 1307.39 Q1268.59 1302.78 1268.59 1294.05 Q1268.59 1285.3 1271.65 1280.72 Q1274.73 1276.11 1280.54 1276.11 Z" fill="#000000" fill-rule="nonzero" fill-opacity="1" /><path clip-path="url(#clip860)" d="M690.255 1349.04 L730.454 1349.04 L730.454 1354.45 L713.585 1354.45 L713.585 1396.56 L707.124 1396.56 L707.124 1354.45 L690.255 1354.45 L690.255 1349.04 Z" fill="#000000" fill-rule="nonzero" fill-opacity="1" /><path clip-path="url(#clip860)" d="M771.195 1347.1 Q766.93 1354.42 764.861 1361.58 Q762.792 1368.75 762.792 1376.1 Q762.792 1383.45 764.861 1390.68 Q766.962 1397.87 771.195 1405.16 L766.102 1405.16 Q761.328 1397.68 758.941 1390.45 Q756.586 1383.23 756.586 1376.1 Q756.586 1369 758.941 1361.81 Q761.296 1354.61 766.102 1347.1 L771.195 1347.1 Z" fill="#000000" fill-rule="nonzero" fill-opacity="1" /><path clip-path="url(#clip860)" d="M792.711 1352.29 Q790.165 1352.29 788.414 1354.07 Q786.664 1355.82 786.664 1358.37 Q786.664 1360.88 788.414 1362.63 Q790.165 1364.35 792.711 1364.35 Q795.257 1364.35 797.008 1362.63 Q798.758 1360.88 798.758 1358.37 Q798.758 1355.86 796.976 1354.07 Q795.225 1352.29 792.711 1352.29 M792.711 1348.18 Q794.748 1348.18 796.626 1348.98 Q798.504 1349.74 799.872 1351.21 Q801.337 1352.64 802.069 1354.45 Q802.801 1356.27 802.801 1358.37 Q802.801 1362.57 799.841 1365.5 Q796.912 1368.4 792.647 1368.4 Q788.351 1368.4 785.486 1365.53 Q782.621 1362.67 782.621 1358.37 Q782.621 1354.1 785.55 1351.14 Q788.478 1348.18 792.711 1348.18 Z" fill="#000000" fill-rule="nonzero" fill-opacity="1" /><path clip-path="url(#clip860)" d="M850.989 1352.7 L850.989 1359.48 Q847.743 1356.46 844.05 1354.96 Q840.39 1353.47 836.252 1353.47 Q828.104 1353.47 823.776 1358.47 Q819.447 1363.43 819.447 1372.85 Q819.447 1382.24 823.776 1387.24 Q828.104 1392.2 836.252 1392.2 Q840.39 1392.2 844.05 1390.71 Q847.743 1389.21 850.989 1386.19 L850.989 1392.9 Q847.615 1395.2 843.828 1396.34 Q840.072 1397.49 835.871 1397.49 Q825.081 1397.49 818.874 1390.9 Q812.668 1384.28 812.668 1372.85 Q812.668 1361.39 818.874 1354.8 Q825.081 1348.18 835.871 1348.18 Q840.136 1348.18 843.891 1349.33 Q847.679 1350.44 850.989 1352.7 Z" fill="#000000" fill-rule="nonzero" fill-opacity="1" /><path clip-path="url(#clip860)" d="M859.742 1347.1 L864.834 1347.1 Q869.609 1354.61 871.964 1361.81 Q874.351 1369 874.351 1376.1 Q874.351 1383.23 871.964 1390.45 Q869.609 1397.68 864.834 1405.16 L859.742 1405.16 Q863.975 1397.87 866.044 1390.68 Q868.145 1383.45 868.145 1376.1 Q868.145 1368.75 866.044 1361.58 Q863.975 1354.42 859.742 1347.1 Z" fill="#000000" fill-rule="nonzero" fill-opacity="1" /><polyline clip-path="url(#clip860)" style="stroke:#000000; stroke-linecap:round; stroke-linejoin:round; stroke-width:4; stroke-opacity:1; fill:none" points="269.903,1245.7 269.903,108.352 "/>
<polyline clip-path="url(#clip860)" style="stroke:#000000; stroke-linecap:round; stroke-linejoin:round; stroke-width:4; stroke-opacity:1; fill:none" points="269.903,1115.47 288.8,1115.47 "/>
<polyline clip-path="url(#clip860)" style="stroke:#000000; stroke-linecap:round; stroke-linejoin:round; stroke-width:4; stroke-opacity:1; fill:none" points="269.903,862.296 288.8,862.296 "/>
<polyline clip-path="url(#clip860)" style="stroke:#000000; stroke-linecap:round; stroke-linejoin:round; stroke-width:4; stroke-opacity:1; fill:none" points="269.903,609.125 288.8,609.125 "/>
<polyline clip-path="url(#clip860)" style="stroke:#000000; stroke-linecap:round; stroke-linejoin:round; stroke-width:4; stroke-opacity:1; fill:none" points="269.903,355.954 288.8,355.954 "/>
<path clip-path="url(#clip860)" d="M101.051 1128.81 L108.69 1128.81 L108.69 1102.45 L100.38 1104.11 L100.38 1099.85 L108.644 1098.19 L113.32 1098.19 L113.32 1128.81 L120.959 1128.81 L120.959 1132.75 L101.051 1132.75 L101.051 1128.81 Z" fill="#000000" fill-rule="nonzero" fill-opacity="1" /><path clip-path="url(#clip860)" d="M130.403 1126.87 L135.287 1126.87 L135.287 1132.75 L130.403 1132.75 L130.403 1126.87 Z" fill="#000000" fill-rule="nonzero" fill-opacity="1" /><path clip-path="url(#clip860)" d="M159.639 1114.11 Q162.996 1114.83 164.871 1117.1 Q166.769 1119.37 166.769 1122.7 Q166.769 1127.82 163.25 1130.62 Q159.732 1133.42 153.25 1133.42 Q151.074 1133.42 148.76 1132.98 Q146.468 1132.56 144.014 1131.7 L144.014 1127.19 Q145.959 1128.32 148.273 1128.9 Q150.588 1129.48 153.111 1129.48 Q157.509 1129.48 159.801 1127.75 Q162.116 1126.01 162.116 1122.7 Q162.116 1119.64 159.963 1117.93 Q157.834 1116.2 154.014 1116.2 L149.986 1116.2 L149.986 1112.35 L154.199 1112.35 Q157.648 1112.35 159.477 1110.99 Q161.306 1109.6 161.306 1107.01 Q161.306 1104.34 159.408 1102.93 Q157.533 1101.5 154.014 1101.5 Q152.093 1101.5 149.894 1101.91 Q147.695 1102.33 145.056 1103.21 L145.056 1099.04 Q147.718 1098.3 150.033 1097.93 Q152.371 1097.56 154.431 1097.56 Q159.755 1097.56 162.857 1099.99 Q165.959 1102.4 165.959 1106.52 Q165.959 1109.39 164.315 1111.38 Q162.671 1113.35 159.639 1114.11 Z" fill="#000000" fill-rule="nonzero" fill-opacity="1" /><path clip-path="url(#clip860)" d="M185.634 1101.26 Q182.023 1101.26 180.195 1104.83 Q178.389 1108.37 178.389 1115.5 Q178.389 1122.61 180.195 1126.17 Q182.023 1129.71 185.634 1129.71 Q189.269 1129.71 191.074 1126.17 Q192.903 1122.61 192.903 1115.5 Q192.903 1108.37 191.074 1104.83 Q189.269 1101.26 185.634 1101.26 M185.634 1097.56 Q191.444 1097.56 194.5 1102.17 Q197.579 1106.75 197.579 1115.5 Q197.579 1124.23 194.5 1128.83 Q191.444 1133.42 185.634 1133.42 Q179.824 1133.42 176.745 1128.83 Q173.69 1124.23 173.69 1115.5 Q173.69 1106.75 176.745 1102.17 Q179.824 1097.56 185.634 1097.56 Z" fill="#000000" fill-rule="nonzero" fill-opacity="1" /><path clip-path="url(#clip860)" d="M216.375 1113.6 Q213.227 1113.6 211.375 1115.76 Q209.546 1117.91 209.546 1121.66 Q209.546 1125.38 211.375 1127.56 Q213.227 1129.71 216.375 1129.71 Q219.523 1129.71 221.352 1127.56 Q223.204 1125.38 223.204 1121.66 Q223.204 1117.91 221.352 1115.76 Q219.523 1113.6 216.375 1113.6 M225.657 1098.95 L225.657 1103.21 Q223.898 1102.38 222.092 1101.94 Q220.31 1101.5 218.551 1101.5 Q213.921 1101.5 211.468 1104.62 Q209.037 1107.75 208.69 1114.07 Q210.055 1112.05 212.116 1110.99 Q214.176 1109.9 216.653 1109.9 Q221.861 1109.9 224.87 1113.07 Q227.903 1116.22 227.903 1121.66 Q227.903 1126.98 224.754 1130.2 Q221.606 1133.42 216.375 1133.42 Q210.38 1133.42 207.208 1128.83 Q204.037 1124.23 204.037 1115.5 Q204.037 1107.31 207.926 1102.45 Q211.815 1097.56 218.366 1097.56 Q220.125 1097.56 221.907 1097.91 Q223.713 1098.26 225.657 1098.95 Z" fill="#000000" fill-rule="nonzero" fill-opacity="1" /><path clip-path="url(#clip860)" d="M102.116 875.64 L109.755 875.64 L109.755 849.275 L101.445 850.941 L101.445 846.682 L109.709 845.016 L114.385 845.016 L114.385 875.64 L122.024 875.64 L122.024 879.576 L102.116 879.576 L102.116 875.64 Z" fill="#000000" fill-rule="nonzero" fill-opacity="1" /><path clip-path="url(#clip860)" d="M131.468 873.696 L136.352 873.696 L136.352 879.576 L131.468 879.576 L131.468 873.696 Z" fill="#000000" fill-rule="nonzero" fill-opacity="1" /><path clip-path="url(#clip860)" d="M160.704 860.941 Q164.06 861.659 165.935 863.927 Q167.833 866.196 167.833 869.529 Q167.833 874.645 164.315 877.446 Q160.797 880.247 154.315 880.247 Q152.139 880.247 149.824 879.807 Q147.533 879.39 145.079 878.534 L145.079 874.02 Q147.023 875.154 149.338 875.733 Q151.653 876.312 154.176 876.312 Q158.574 876.312 160.866 874.576 Q163.181 872.839 163.181 869.529 Q163.181 866.474 161.028 864.761 Q158.898 863.025 155.079 863.025 L151.051 863.025 L151.051 859.182 L155.264 859.182 Q158.713 859.182 160.542 857.816 Q162.371 856.427 162.371 853.835 Q162.371 851.173 160.472 849.761 Q158.597 848.326 155.079 848.326 Q153.158 848.326 150.959 848.742 Q148.76 849.159 146.121 850.039 L146.121 845.872 Q148.783 845.131 151.097 844.761 Q153.435 844.391 155.496 844.391 Q160.82 844.391 163.921 846.821 Q167.023 849.228 167.023 853.349 Q167.023 856.219 165.38 858.21 Q163.736 860.177 160.704 860.941 Z" fill="#000000" fill-rule="nonzero" fill-opacity="1" /><path clip-path="url(#clip860)" d="M186.699 848.094 Q183.088 848.094 181.259 851.659 Q179.454 855.201 179.454 862.33 Q179.454 869.437 181.259 873.001 Q183.088 876.543 186.699 876.543 Q190.333 876.543 192.139 873.001 Q193.968 869.437 193.968 862.33 Q193.968 855.201 192.139 851.659 Q190.333 848.094 186.699 848.094 M186.699 844.391 Q192.509 844.391 195.565 848.997 Q198.644 853.58 198.644 862.33 Q198.644 871.057 195.565 875.663 Q192.509 880.247 186.699 880.247 Q180.889 880.247 177.81 875.663 Q174.755 871.057 174.755 862.33 Q174.755 853.58 177.81 848.997 Q180.889 844.391 186.699 844.391 Z" fill="#000000" fill-rule="nonzero" fill-opacity="1" /><path clip-path="url(#clip860)" d="M205.681 845.016 L227.903 845.016 L227.903 847.006 L215.356 879.576 L210.472 879.576 L222.278 848.951 L205.681 848.951 L205.681 845.016 Z" fill="#000000" fill-rule="nonzero" fill-opacity="1" /><path clip-path="url(#clip860)" d="M101.306 622.47 L108.945 622.47 L108.945 596.104 L100.635 597.771 L100.635 593.512 L108.899 591.845 L113.575 591.845 L113.575 622.47 L121.213 622.47 L121.213 626.405 L101.306 626.405 L101.306 622.47 Z" fill="#000000" fill-rule="nonzero" fill-opacity="1" /><path clip-path="url(#clip860)" d="M130.658 620.525 L135.542 620.525 L135.542 626.405 L130.658 626.405 L130.658 620.525 Z" fill="#000000" fill-rule="nonzero" fill-opacity="1" /><path clip-path="url(#clip860)" d="M159.894 607.771 Q163.25 608.488 165.125 610.757 Q167.023 613.025 167.023 616.359 Q167.023 621.474 163.505 624.275 Q159.986 627.076 153.505 627.076 Q151.329 627.076 149.014 626.636 Q146.723 626.22 144.269 625.363 L144.269 620.849 Q146.213 621.984 148.528 622.562 Q150.843 623.141 153.366 623.141 Q157.764 623.141 160.056 621.405 Q162.371 619.669 162.371 616.359 Q162.371 613.303 160.218 611.59 Q158.088 609.854 154.269 609.854 L150.241 609.854 L150.241 606.012 L154.454 606.012 Q157.903 606.012 159.732 604.646 Q161.56 603.257 161.56 600.664 Q161.56 598.002 159.662 596.59 Q157.787 595.155 154.269 595.155 Q152.347 595.155 150.148 595.572 Q147.949 595.988 145.31 596.868 L145.31 592.701 Q147.972 591.961 150.287 591.59 Q152.625 591.22 154.685 591.22 Q160.009 591.22 163.111 593.651 Q166.213 596.058 166.213 600.178 Q166.213 603.049 164.57 605.039 Q162.926 607.007 159.894 607.771 Z" fill="#000000" fill-rule="nonzero" fill-opacity="1" /><path clip-path="url(#clip860)" d="M185.889 594.924 Q182.278 594.924 180.449 598.488 Q178.644 602.03 178.644 609.16 Q178.644 616.266 180.449 619.831 Q182.278 623.373 185.889 623.373 Q189.523 623.373 191.329 619.831 Q193.157 616.266 193.157 609.16 Q193.157 602.03 191.329 598.488 Q189.523 594.924 185.889 594.924 M185.889 591.22 Q191.699 591.22 194.755 595.826 Q197.833 600.41 197.833 609.16 Q197.833 617.887 194.755 622.493 Q191.699 627.076 185.889 627.076 Q180.079 627.076 177 622.493 Q173.945 617.887 173.945 609.16 Q173.945 600.41 177 595.826 Q180.079 591.22 185.889 591.22 Z" fill="#000000" fill-rule="nonzero" fill-opacity="1" /><path clip-path="url(#clip860)" d="M216.051 609.993 Q212.718 609.993 210.796 611.775 Q208.898 613.558 208.898 616.683 Q208.898 619.808 210.796 621.59 Q212.718 623.373 216.051 623.373 Q219.384 623.373 221.305 621.59 Q223.227 619.785 223.227 616.683 Q223.227 613.558 221.305 611.775 Q219.407 609.993 216.051 609.993 M211.375 608.002 Q208.366 607.262 206.676 605.201 Q205.009 603.141 205.009 600.178 Q205.009 596.035 207.949 593.627 Q210.912 591.22 216.051 591.22 Q221.213 591.22 224.153 593.627 Q227.092 596.035 227.092 600.178 Q227.092 603.141 225.403 605.201 Q223.736 607.262 220.75 608.002 Q224.129 608.789 226.004 611.081 Q227.903 613.373 227.903 616.683 Q227.903 621.706 224.824 624.391 Q221.768 627.076 216.051 627.076 Q210.333 627.076 207.255 624.391 Q204.199 621.706 204.199 616.683 Q204.199 613.373 206.097 611.081 Q207.995 608.789 211.375 608.002 M209.662 600.618 Q209.662 603.303 211.329 604.808 Q213.018 606.313 216.051 606.313 Q219.06 606.313 220.75 604.808 Q222.463 603.303 222.463 600.618 Q222.463 597.933 220.75 596.428 Q219.06 594.924 216.051 594.924 Q213.018 594.924 211.329 596.428 Q209.662 597.933 209.662 600.618 Z" fill="#000000" fill-rule="nonzero" fill-opacity="1" /><path clip-path="url(#clip860)" d="M101.399 369.299 L109.038 369.299 L109.038 342.934 L100.727 344.6 L100.727 340.341 L108.991 338.674 L113.667 338.674 L113.667 369.299 L121.306 369.299 L121.306 373.234 L101.399 373.234 L101.399 369.299 Z" fill="#000000" fill-rule="nonzero" fill-opacity="1" /><path clip-path="url(#clip860)" d="M130.75 367.355 L135.635 367.355 L135.635 373.234 L130.75 373.234 L130.75 367.355 Z" fill="#000000" fill-rule="nonzero" fill-opacity="1" /><path clip-path="url(#clip860)" d="M159.986 354.6 Q163.343 355.318 165.218 357.586 Q167.116 359.855 167.116 363.188 Q167.116 368.304 163.597 371.105 Q160.079 373.906 153.597 373.906 Q151.422 373.906 149.107 373.466 Q146.815 373.049 144.361 372.193 L144.361 367.679 Q146.306 368.813 148.621 369.392 Q150.935 369.971 153.459 369.971 Q157.857 369.971 160.148 368.235 Q162.463 366.498 162.463 363.188 Q162.463 360.133 160.31 358.42 Q158.181 356.684 154.361 356.684 L150.334 356.684 L150.334 352.841 L154.547 352.841 Q157.996 352.841 159.824 351.475 Q161.653 350.086 161.653 347.494 Q161.653 344.832 159.755 343.42 Q157.88 341.985 154.361 341.985 Q152.44 341.985 150.241 342.401 Q148.042 342.818 145.403 343.698 L145.403 339.531 Q148.065 338.79 150.38 338.42 Q152.718 338.049 154.778 338.049 Q160.102 338.049 163.204 340.48 Q166.306 342.887 166.306 347.008 Q166.306 349.878 164.662 351.869 Q163.019 353.836 159.986 354.6 Z" fill="#000000" fill-rule="nonzero" fill-opacity="1" /><path clip-path="url(#clip860)" d="M185.982 341.753 Q182.37 341.753 180.542 345.318 Q178.736 348.86 178.736 355.989 Q178.736 363.096 180.542 366.66 Q182.37 370.202 185.982 370.202 Q189.616 370.202 191.421 366.66 Q193.25 363.096 193.25 355.989 Q193.25 348.86 191.421 345.318 Q189.616 341.753 185.982 341.753 M185.982 338.049 Q191.792 338.049 194.847 342.656 Q197.926 347.239 197.926 355.989 Q197.926 364.716 194.847 369.322 Q191.792 373.906 185.982 373.906 Q180.171 373.906 177.093 369.322 Q174.037 364.716 174.037 355.989 Q174.037 347.239 177.093 342.656 Q180.171 338.049 185.982 338.049 Z" fill="#000000" fill-rule="nonzero" fill-opacity="1" /><path clip-path="url(#clip860)" d="M206.282 372.517 L206.282 368.258 Q208.042 369.091 209.847 369.531 Q211.653 369.971 213.389 369.971 Q218.018 369.971 220.449 366.869 Q222.903 363.744 223.25 357.401 Q221.907 359.392 219.847 360.457 Q217.787 361.522 215.287 361.522 Q210.102 361.522 207.069 358.397 Q204.06 355.248 204.06 349.809 Q204.06 344.485 207.208 341.267 Q210.356 338.049 215.588 338.049 Q221.583 338.049 224.731 342.656 Q227.903 347.239 227.903 355.989 Q227.903 364.16 224.014 369.045 Q220.148 373.906 213.597 373.906 Q211.838 373.906 210.032 373.559 Q208.227 373.211 206.282 372.517 M215.588 357.864 Q218.736 357.864 220.565 355.711 Q222.417 353.559 222.417 349.809 Q222.417 346.082 220.565 343.929 Q218.736 341.753 215.588 341.753 Q212.44 341.753 210.588 343.929 Q208.759 346.082 208.759 349.809 Q208.759 353.559 210.588 355.711 Q212.44 357.864 215.588 357.864 Z" fill="#000000" fill-rule="nonzero" fill-opacity="1" /><path clip-path="url(#clip860)" d="M38.777 710.175 L57.6831 710.175 L57.6831 716.064 L8.4762 716.064 L8.4762 710.175 L13.8871 710.175 Q10.7042 708.329 9.17643 705.528 Q7.61683 702.696 7.61683 698.781 Q7.61683 692.288 12.7731 688.246 Q17.9293 684.171 26.332 684.171 Q34.7347 684.171 39.891 688.246 Q45.0472 692.288 45.0472 698.781 Q45.0472 702.696 43.5194 705.528 Q41.9598 708.329 38.777 710.175 M26.332 690.251 Q19.8708 690.251 16.2105 692.924 Q12.5184 695.566 12.5184 700.213 Q12.5184 704.86 16.2105 707.534 Q19.8708 710.175 26.332 710.175 Q32.7932 710.175 36.4853 707.534 Q40.1456 704.86 40.1456 700.213 Q40.1456 695.566 36.4853 692.924 Q32.7932 690.251 26.332 690.251 Z" fill="#000000" fill-rule="nonzero" fill-opacity="1" /><path clip-path="url(#clip860)" d="M-3.39584 674.209 L-3.39584 667.78 L16.0832 667.78 L16.0832 644.418 L-3.39584 644.418 L-3.39584 637.988 L44.1242 637.988 L44.1242 644.418 L21.4941 644.418 L21.4941 667.78 L44.1242 667.78 L44.1242 674.209 L-3.39584 674.209 Z" fill="#000000" fill-rule="nonzero" fill-opacity="1" /><path clip-path="url(#clip860)" d="M740.113 65.7705 L740.113 89.8329 L732.619 89.8329 L732.619 27.2059 L740.113 27.2059 L740.113 34.0924 Q742.462 30.0415 746.027 28.0971 Q749.633 26.1121 754.615 26.1121 Q762.879 26.1121 768.024 32.6746 Q773.209 39.2371 773.209 49.9314 Q773.209 60.6258 768.024 67.1883 Q762.879 73.7508 754.615 73.7508 Q749.633 73.7508 746.027 71.8063 Q742.462 69.8214 740.113 65.7705 M765.472 49.9314 Q765.472 41.7081 762.069 37.0496 Q758.707 32.3505 752.792 32.3505 Q746.878 32.3505 743.475 37.0496 Q740.113 41.7081 740.113 49.9314 Q740.113 58.1548 743.475 62.8538 Q746.878 67.5124 752.792 67.5124 Q758.707 67.5124 762.069 62.8538 Q765.472 58.1548 765.472 49.9314 Z" fill="#000000" fill-rule="nonzero" fill-opacity="1" /><path clip-path="url(#clip860)" d="M785.888 12.096 L794.071 12.096 L794.071 36.8875 L823.805 36.8875 L823.805 12.096 L831.987 12.096 L831.987 72.576 L823.805 72.576 L823.805 43.7741 L794.071 43.7741 L794.071 72.576 L785.888 72.576 L785.888 12.096 Z" fill="#000000" fill-rule="nonzero" fill-opacity="1" /><polyline clip-path="url(#clip862)" style="stroke:#009af9; stroke-linecap:round; stroke-linejoin:round; stroke-width:8; stroke-opacity:1; fill:none" points="298.906,140.541 347.246,198.816 395.586,256.599 443.925,313.891 492.265,370.693 540.605,427.005 588.944,482.829 637.284,538.165 685.624,593.014 733.963,647.378 782.303,701.256 830.643,754.649 878.982,807.559 927.322,859.986 975.662,911.93 1024,963.393 1072.34,1014.38 1120.68,1064.88 1169.02,1114.9 1217.36,1164.44 1265.7,1213.51 "/>
<circle clip-path="url(#clip862)" cx="298.906" cy="140.541" r="14.4" fill="#009af9" fill-rule="evenodd" fill-opacity="1" stroke="#000000" stroke-opacity="1" stroke-width="2.8"/>
<circle clip-path="url(#clip862)" cx="347.246" cy="198.816" r="14.4" fill="#009af9" fill-rule="evenodd" fill-opacity="1" stroke="#000000" stroke-opacity="1" stroke-width="2.8"/>
<circle clip-path="url(#clip862)" cx="395.586" cy="256.599" r="14.4" fill="#009af9" fill-rule="evenodd" fill-opacity="1" stroke="#000000" stroke-opacity="1" stroke-width="2.8"/>
<circle clip-path="url(#clip862)" cx="443.925" cy="313.891" r="14.4" fill="#009af9" fill-rule="evenodd" fill-opacity="1" stroke="#000000" stroke-opacity="1" stroke-width="2.8"/>
<circle clip-path="url(#clip862)" cx="492.265" cy="370.693" r="14.4" fill="#009af9" fill-rule="evenodd" fill-opacity="1" stroke="#000000" stroke-opacity="1" stroke-width="2.8"/>
<circle clip-path="url(#clip862)" cx="540.605" cy="427.005" r="14.4" fill="#009af9" fill-rule="evenodd" fill-opacity="1" stroke="#000000" stroke-opacity="1" stroke-width="2.8"/>
<circle clip-path="url(#clip862)" cx="588.944" cy="482.829" r="14.4" fill="#009af9" fill-rule="evenodd" fill-opacity="1" stroke="#000000" stroke-opacity="1" stroke-width="2.8"/>
<circle clip-path="url(#clip862)" cx="637.284" cy="538.165" r="14.4" fill="#009af9" fill-rule="evenodd" fill-opacity="1" stroke="#000000" stroke-opacity="1" stroke-width="2.8"/>
<circle clip-path="url(#clip862)" cx="685.624" cy="593.014" r="14.4" fill="#009af9" fill-rule="evenodd" fill-opacity="1" stroke="#000000" stroke-opacity="1" stroke-width="2.8"/>
<circle clip-path="url(#clip862)" cx="733.963" cy="647.378" r="14.4" fill="#009af9" fill-rule="evenodd" fill-opacity="1" stroke="#000000" stroke-opacity="1" stroke-width="2.8"/>
<circle clip-path="url(#clip862)" cx="782.303" cy="701.256" r="14.4" fill="#009af9" fill-rule="evenodd" fill-opacity="1" stroke="#000000" stroke-opacity="1" stroke-width="2.8"/>
<circle clip-path="url(#clip862)" cx="830.643" cy="754.649" r="14.4" fill="#009af9" fill-rule="evenodd" fill-opacity="1" stroke="#000000" stroke-opacity="1" stroke-width="2.8"/>
<circle clip-path="url(#clip862)" cx="878.982" cy="807.559" r="14.4" fill="#009af9" fill-rule="evenodd" fill-opacity="1" stroke="#000000" stroke-opacity="1" stroke-width="2.8"/>
<circle clip-path="url(#clip862)" cx="927.322" cy="859.986" r="14.4" fill="#009af9" fill-rule="evenodd" fill-opacity="1" stroke="#000000" stroke-opacity="1" stroke-width="2.8"/>
<circle clip-path="url(#clip862)" cx="975.662" cy="911.93" r="14.4" fill="#009af9" fill-rule="evenodd" fill-opacity="1" stroke="#000000" stroke-opacity="1" stroke-width="2.8"/>
<circle clip-path="url(#clip862)" cx="1024" cy="963.393" r="14.4" fill="#009af9" fill-rule="evenodd" fill-opacity="1" stroke="#000000" stroke-opacity="1" stroke-width="2.8"/>
<circle clip-path="url(#clip862)" cx="1072.34" cy="1014.38" r="14.4" fill="#009af9" fill-rule="evenodd" fill-opacity="1" stroke="#000000" stroke-opacity="1" stroke-width="2.8"/>
<circle clip-path="url(#clip862)" cx="1120.68" cy="1064.88" r="14.4" fill="#009af9" fill-rule="evenodd" fill-opacity="1" stroke="#000000" stroke-opacity="1" stroke-width="2.8"/>
<circle clip-path="url(#clip862)" cx="1169.02" cy="1114.9" r="14.4" fill="#009af9" fill-rule="evenodd" fill-opacity="1" stroke="#000000" stroke-opacity="1" stroke-width="2.8"/>
<circle clip-path="url(#clip862)" cx="1217.36" cy="1164.44" r="14.4" fill="#009af9" fill-rule="evenodd" fill-opacity="1" stroke="#000000" stroke-opacity="1" stroke-width="2.8"/>
<circle clip-path="url(#clip862)" cx="1265.7" cy="1213.51" r="14.4" fill="#009af9" fill-rule="evenodd" fill-opacity="1" stroke="#000000" stroke-opacity="1" stroke-width="2.8"/>
<path clip-path="url(#clip860)" d="M1101.28 249.944 L1260.54 249.944 L1260.54 146.264 L1101.28 146.264  Z" fill="#ffffff" fill-rule="evenodd" fill-opacity="1"/>
<polyline clip-path="url(#clip860)" style="stroke:#000000; stroke-linecap:round; stroke-linejoin:round; stroke-width:4; stroke-opacity:1; fill:none" points="1101.28,249.944 1260.54,249.944 1260.54,146.264 1101.28,146.264 1101.28,249.944 "/>
<polyline clip-path="url(#clip860)" style="stroke:#009af9; stroke-linecap:round; stroke-linejoin:round; stroke-width:8; stroke-opacity:1; fill:none" points="1112.67,198.104 1180.99,198.104 "/>
<circle clip-path="url(#clip860)" cx="1146.83" cy="198.104" r="9.4889" fill="#009af9" fill-rule="evenodd" fill-opacity="1" stroke="#000000" stroke-opacity="1" stroke-width="3.98222"/>
<path clip-path="url(#clip860)" d="M1196.66 211.495 L1196.66 225.245 L1192.37 225.245 L1192.37 189.458 L1196.66 189.458 L1196.66 193.393 Q1198 191.078 1200.04 189.967 Q1202.1 188.833 1204.94 188.833 Q1209.67 188.833 1212.61 192.583 Q1215.57 196.333 1215.57 202.444 Q1215.57 208.555 1212.61 212.305 Q1209.67 216.055 1204.94 216.055 Q1202.1 216.055 1200.04 214.944 Q1198 213.81 1196.66 211.495 M1211.15 202.444 Q1211.15 197.745 1209.2 195.083 Q1207.28 192.398 1203.9 192.398 Q1200.52 192.398 1198.58 195.083 Q1196.66 197.745 1196.66 202.444 Q1196.66 207.143 1198.58 209.828 Q1200.52 212.49 1203.9 212.49 Q1207.28 212.49 1209.2 209.828 Q1211.15 207.143 1211.15 202.444 Z" fill="#000000" fill-rule="nonzero" fill-opacity="1" /><path clip-path="url(#clip860)" d="M1222.81 180.824 L1227.49 180.824 L1227.49 194.99 L1244.48 194.99 L1244.48 180.824 L1249.16 180.824 L1249.16 215.384 L1244.48 215.384 L1244.48 198.925 L1227.49 198.925 L1227.49 215.384 L1222.81 215.384 L1222.81 180.824 Z" fill="#000000" fill-rule="nonzero" fill-opacity="1" /><path clip-path="url(#clip860)" d="M1727.95 1245.7 L2752.76 1245.7 L2752.76 108.352 L1727.95 108.352  Z" fill="#ffffff" fill-rule="evenodd" fill-opacity="1"/>
<polyline clip-path="url(#clip861)" style="stroke:#000000; stroke-linecap:round; stroke-linejoin:round; stroke-width:2; stroke-opacity:0.1; fill:none" points="1756.96,1245.7 1756.96,108.352 "/>
<polyline clip-path="url(#clip861)" style="stroke:#000000; stroke-linecap:round; stroke-linejoin:round; stroke-width:2; stroke-opacity:0.1; fill:none" points="1998.66,1245.7 1998.66,108.352 "/>
<polyline clip-path="url(#clip861)" style="stroke:#000000; stroke-linecap:round; stroke-linejoin:round; stroke-width:2; stroke-opacity:0.1; fill:none" points="2240.36,1245.7 2240.36,108.352 "/>
<polyline clip-path="url(#clip861)" style="stroke:#000000; stroke-linecap:round; stroke-linejoin:round; stroke-width:2; stroke-opacity:0.1; fill:none" points="2482.05,1245.7 2482.05,108.352 "/>
<polyline clip-path="url(#clip861)" style="stroke:#000000; stroke-linecap:round; stroke-linejoin:round; stroke-width:2; stroke-opacity:0.1; fill:none" points="2723.75,1245.7 2723.75,108.352 "/>
<polyline clip-path="url(#clip861)" style="stroke:#000000; stroke-linecap:round; stroke-linejoin:round; stroke-width:2; stroke-opacity:0.1; fill:none" points="1727.95,1215.57 2752.76,1215.57 "/>
<polyline clip-path="url(#clip861)" style="stroke:#000000; stroke-linecap:round; stroke-linejoin:round; stroke-width:2; stroke-opacity:0.1; fill:none" points="1727.95,1009.66 2752.76,1009.66 "/>
<polyline clip-path="url(#clip861)" style="stroke:#000000; stroke-linecap:round; stroke-linejoin:round; stroke-width:2; stroke-opacity:0.1; fill:none" points="1727.95,803.755 2752.76,803.755 "/>
<polyline clip-path="url(#clip861)" style="stroke:#000000; stroke-linecap:round; stroke-linejoin:round; stroke-width:2; stroke-opacity:0.1; fill:none" points="1727.95,597.847 2752.76,597.847 "/>
<polyline clip-path="url(#clip861)" style="stroke:#000000; stroke-linecap:round; stroke-linejoin:round; stroke-width:2; stroke-opacity:0.1; fill:none" points="1727.95,391.939 2752.76,391.939 "/>
<polyline clip-path="url(#clip861)" style="stroke:#000000; stroke-linecap:round; stroke-linejoin:round; stroke-width:2; stroke-opacity:0.1; fill:none" points="1727.95,186.032 2752.76,186.032 "/>
<polyline clip-path="url(#clip860)" style="stroke:#000000; stroke-linecap:round; stroke-linejoin:round; stroke-width:4; stroke-opacity:1; fill:none" points="1727.95,1245.7 2752.76,1245.7 "/>
<polyline clip-path="url(#clip860)" style="stroke:#000000; stroke-linecap:round; stroke-linejoin:round; stroke-width:4; stroke-opacity:1; fill:none" points="1756.96,1245.7 1756.96,1226.8 "/>
<polyline clip-path="url(#clip860)" style="stroke:#000000; stroke-linecap:round; stroke-linejoin:round; stroke-width:4; stroke-opacity:1; fill:none" points="1998.66,1245.7 1998.66,1226.8 "/>
<polyline clip-path="url(#clip860)" style="stroke:#000000; stroke-linecap:round; stroke-linejoin:round; stroke-width:4; stroke-opacity:1; fill:none" points="2240.36,1245.7 2240.36,1226.8 "/>
<polyline clip-path="url(#clip860)" style="stroke:#000000; stroke-linecap:round; stroke-linejoin:round; stroke-width:4; stroke-opacity:1; fill:none" points="2482.05,1245.7 2482.05,1226.8 "/>
<polyline clip-path="url(#clip860)" style="stroke:#000000; stroke-linecap:round; stroke-linejoin:round; stroke-width:4; stroke-opacity:1; fill:none" points="2723.75,1245.7 2723.75,1226.8 "/>
<path clip-path="url(#clip860)" d="M1731.65 1307.36 L1739.29 1307.36 L1739.29 1281 L1730.98 1282.67 L1730.98 1278.41 L1739.24 1276.74 L1743.91 1276.74 L1743.91 1307.36 L1751.55 1307.36 L1751.55 1311.3 L1731.65 1311.3 L1731.65 1307.36 Z" fill="#000000" fill-rule="nonzero" fill-opacity="1" /><path clip-path="url(#clip860)" d="M1771 1279.82 Q1767.39 1279.82 1765.56 1283.38 Q1763.75 1286.92 1763.75 1294.05 Q1763.75 1301.16 1765.56 1304.73 Q1767.39 1308.27 1771 1308.27 Q1774.63 1308.27 1776.44 1304.73 Q1778.27 1301.16 1778.27 1294.05 Q1778.27 1286.92 1776.44 1283.38 Q1774.63 1279.82 1771 1279.82 M1771 1276.11 Q1776.81 1276.11 1779.86 1280.72 Q1782.94 1285.3 1782.94 1294.05 Q1782.94 1302.78 1779.86 1307.39 Q1776.81 1311.97 1771 1311.97 Q1765.19 1311.97 1762.11 1307.39 Q1759.05 1302.78 1759.05 1294.05 Q1759.05 1285.3 1762.11 1280.72 Q1765.19 1276.11 1771 1276.11 Z" fill="#000000" fill-rule="nonzero" fill-opacity="1" /><path clip-path="url(#clip860)" d="M1973.84 1307.36 L1981.48 1307.36 L1981.48 1281 L1973.17 1282.67 L1973.17 1278.41 L1981.43 1276.74 L1986.11 1276.74 L1986.11 1307.36 L1993.75 1307.36 L1993.75 1311.3 L1973.84 1311.3 L1973.84 1307.36 Z" fill="#000000" fill-rule="nonzero" fill-opacity="1" /><path clip-path="url(#clip860)" d="M2003.24 1276.74 L2021.6 1276.74 L2021.6 1280.68 L2007.52 1280.68 L2007.52 1289.15 Q2008.54 1288.8 2009.56 1288.64 Q2010.58 1288.45 2011.6 1288.45 Q2017.38 1288.45 2020.76 1291.62 Q2024.14 1294.8 2024.14 1300.21 Q2024.14 1305.79 2020.67 1308.89 Q2017.2 1311.97 2010.88 1311.97 Q2008.7 1311.97 2006.43 1311.6 Q2004.19 1311.23 2001.78 1310.49 L2001.78 1305.79 Q2003.87 1306.92 2006.09 1307.48 Q2008.31 1308.04 2010.79 1308.04 Q2014.79 1308.04 2017.13 1305.93 Q2019.47 1303.82 2019.47 1300.21 Q2019.47 1296.6 2017.13 1294.49 Q2014.79 1292.39 2010.79 1292.39 Q2008.91 1292.39 2007.04 1292.8 Q2005.18 1293.22 2003.24 1294.1 L2003.24 1276.74 Z" fill="#000000" fill-rule="nonzero" fill-opacity="1" /><path clip-path="url(#clip860)" d="M2219.13 1307.36 L2235.45 1307.36 L2235.45 1311.3 L2213.5 1311.3 L2213.5 1307.36 Q2216.17 1304.61 2220.75 1299.98 Q2225.36 1295.33 2226.54 1293.99 Q2228.78 1291.46 2229.66 1289.73 Q2230.56 1287.97 2230.56 1286.28 Q2230.56 1283.52 2228.62 1281.79 Q2226.7 1280.05 2223.6 1280.05 Q2221.4 1280.05 2218.94 1280.81 Q2216.51 1281.58 2213.74 1283.13 L2213.74 1278.41 Q2216.56 1277.27 2219.01 1276.69 Q2221.47 1276.11 2223.5 1276.11 Q2228.87 1276.11 2232.07 1278.8 Q2235.26 1281.49 2235.26 1285.98 Q2235.26 1288.11 2234.45 1290.03 Q2233.67 1291.92 2231.56 1294.52 Q2230.98 1295.19 2227.88 1298.41 Q2224.78 1301.6 2219.13 1307.36 Z" fill="#000000" fill-rule="nonzero" fill-opacity="1" /><path clip-path="url(#clip860)" d="M2255.26 1279.82 Q2251.65 1279.82 2249.82 1283.38 Q2248.02 1286.92 2248.02 1294.05 Q2248.02 1301.16 2249.82 1304.73 Q2251.65 1308.27 2255.26 1308.27 Q2258.9 1308.27 2260.7 1304.73 Q2262.53 1301.16 2262.53 1294.05 Q2262.53 1286.92 2260.7 1283.38 Q2258.9 1279.82 2255.26 1279.82 M2255.26 1276.11 Q2261.07 1276.11 2264.13 1280.72 Q2267.21 1285.3 2267.21 1294.05 Q2267.21 1302.78 2264.13 1307.39 Q2261.07 1311.97 2255.26 1311.97 Q2249.45 1311.97 2246.37 1307.39 Q2243.32 1302.78 2243.32 1294.05 Q2243.32 1285.3 2246.37 1280.72 Q2249.45 1276.11 2255.26 1276.11 Z" fill="#000000" fill-rule="nonzero" fill-opacity="1" /><path clip-path="url(#clip860)" d="M2461.32 1307.36 L2477.64 1307.36 L2477.64 1311.3 L2455.7 1311.3 L2455.7 1307.36 Q2458.36 1304.61 2462.95 1299.98 Q2467.55 1295.33 2468.73 1293.99 Q2470.98 1291.46 2471.86 1289.73 Q2472.76 1287.97 2472.76 1286.28 Q2472.76 1283.52 2470.82 1281.79 Q2468.89 1280.05 2465.79 1280.05 Q2463.59 1280.05 2461.14 1280.81 Q2458.71 1281.58 2455.93 1283.13 L2455.93 1278.41 Q2458.76 1277.27 2461.21 1276.69 Q2463.66 1276.11 2465.7 1276.11 Q2471.07 1276.11 2474.26 1278.8 Q2477.46 1281.49 2477.46 1285.98 Q2477.46 1288.11 2476.65 1290.03 Q2475.86 1291.92 2473.76 1294.52 Q2473.18 1295.19 2470.07 1298.41 Q2466.97 1301.6 2461.32 1307.36 Z" fill="#000000" fill-rule="nonzero" fill-opacity="1" /><path clip-path="url(#clip860)" d="M2487.51 1276.74 L2505.86 1276.74 L2505.86 1280.68 L2491.79 1280.68 L2491.79 1289.15 Q2492.81 1288.8 2493.82 1288.64 Q2494.84 1288.45 2495.86 1288.45 Q2501.65 1288.45 2505.03 1291.62 Q2508.41 1294.8 2508.41 1300.21 Q2508.41 1305.79 2504.94 1308.89 Q2501.46 1311.97 2495.14 1311.97 Q2492.97 1311.97 2490.7 1311.6 Q2488.45 1311.23 2486.05 1310.49 L2486.05 1305.79 Q2488.13 1306.92 2490.35 1307.48 Q2492.57 1308.04 2495.05 1308.04 Q2499.06 1308.04 2501.39 1305.93 Q2503.73 1303.82 2503.73 1300.21 Q2503.73 1296.6 2501.39 1294.49 Q2499.06 1292.39 2495.05 1292.39 Q2493.18 1292.39 2491.3 1292.8 Q2489.45 1293.22 2487.51 1294.1 L2487.51 1276.74 Z" fill="#000000" fill-rule="nonzero" fill-opacity="1" /><path clip-path="url(#clip860)" d="M2712.59 1292.67 Q2715.95 1293.38 2717.83 1295.65 Q2719.72 1297.92 2719.72 1301.25 Q2719.72 1306.37 2716.21 1309.17 Q2712.69 1311.97 2706.21 1311.97 Q2704.03 1311.97 2701.72 1311.53 Q2699.42 1311.11 2696.97 1310.26 L2696.97 1305.74 Q2698.91 1306.88 2701.23 1307.46 Q2703.54 1308.04 2706.07 1308.04 Q2710.47 1308.04 2712.76 1306.3 Q2715.07 1304.56 2715.07 1301.25 Q2715.07 1298.2 2712.92 1296.49 Q2710.79 1294.75 2706.97 1294.75 L2702.94 1294.75 L2702.94 1290.91 L2707.15 1290.91 Q2710.6 1290.91 2712.43 1289.54 Q2714.26 1288.15 2714.26 1285.56 Q2714.26 1282.9 2712.36 1281.49 Q2710.49 1280.05 2706.97 1280.05 Q2705.05 1280.05 2702.85 1280.47 Q2700.65 1280.88 2698.01 1281.76 L2698.01 1277.6 Q2700.67 1276.86 2702.99 1276.49 Q2705.33 1276.11 2707.39 1276.11 Q2712.71 1276.11 2715.81 1278.55 Q2718.91 1280.95 2718.91 1285.07 Q2718.91 1287.94 2717.27 1289.93 Q2715.63 1291.9 2712.59 1292.67 Z" fill="#000000" fill-rule="nonzero" fill-opacity="1" /><path clip-path="url(#clip860)" d="M2738.59 1279.82 Q2734.98 1279.82 2733.15 1283.38 Q2731.34 1286.92 2731.34 1294.05 Q2731.34 1301.16 2733.15 1304.73 Q2734.98 1308.27 2738.59 1308.27 Q2742.22 1308.27 2744.03 1304.73 Q2745.86 1301.16 2745.86 1294.05 Q2745.86 1286.92 2744.03 1283.38 Q2742.22 1279.82 2738.59 1279.82 M2738.59 1276.11 Q2744.4 1276.11 2747.46 1280.72 Q2750.53 1285.3 2750.53 1294.05 Q2750.53 1302.78 2747.46 1307.39 Q2744.4 1311.97 2738.59 1311.97 Q2732.78 1311.97 2729.7 1307.39 Q2726.65 1302.78 2726.65 1294.05 Q2726.65 1285.3 2729.7 1280.72 Q2732.78 1276.11 2738.59 1276.11 Z" fill="#000000" fill-rule="nonzero" fill-opacity="1" /><path clip-path="url(#clip860)" d="M2148.31 1349.04 L2188.51 1349.04 L2188.51 1354.45 L2171.64 1354.45 L2171.64 1396.56 L2165.18 1396.56 L2165.18 1354.45 L2148.31 1354.45 L2148.31 1349.04 Z" fill="#000000" fill-rule="nonzero" fill-opacity="1" /><path clip-path="url(#clip860)" d="M2229.25 1347.1 Q2224.98 1354.42 2222.91 1361.58 Q2220.84 1368.75 2220.84 1376.1 Q2220.84 1383.45 2222.91 1390.68 Q2225.01 1397.87 2229.25 1405.16 L2224.15 1405.16 Q2219.38 1397.68 2216.99 1390.45 Q2214.64 1383.23 2214.64 1376.1 Q2214.64 1369 2216.99 1361.81 Q2219.35 1354.61 2224.15 1347.1 L2229.25 1347.1 Z" fill="#000000" fill-rule="nonzero" fill-opacity="1" /><path clip-path="url(#clip860)" d="M2250.76 1352.29 Q2248.22 1352.29 2246.47 1354.07 Q2244.72 1355.82 2244.72 1358.37 Q2244.72 1360.88 2246.47 1362.63 Q2248.22 1364.35 2250.76 1364.35 Q2253.31 1364.35 2255.06 1362.63 Q2256.81 1360.88 2256.81 1358.37 Q2256.81 1355.86 2255.03 1354.07 Q2253.28 1352.29 2250.76 1352.29 M2250.76 1348.18 Q2252.8 1348.18 2254.68 1348.98 Q2256.56 1349.74 2257.92 1351.21 Q2259.39 1352.64 2260.12 1354.45 Q2260.85 1356.27 2260.85 1358.37 Q2260.85 1362.57 2257.89 1365.5 Q2254.96 1368.4 2250.7 1368.4 Q2246.4 1368.4 2243.54 1365.53 Q2240.67 1362.67 2240.67 1358.37 Q2240.67 1354.1 2243.6 1351.14 Q2246.53 1348.18 2250.76 1348.18 Z" fill="#000000" fill-rule="nonzero" fill-opacity="1" /><path clip-path="url(#clip860)" d="M2309.04 1352.7 L2309.04 1359.48 Q2305.79 1356.46 2302.1 1354.96 Q2298.44 1353.47 2294.3 1353.47 Q2286.16 1353.47 2281.83 1358.47 Q2277.5 1363.43 2277.5 1372.85 Q2277.5 1382.24 2281.83 1387.24 Q2286.16 1392.2 2294.3 1392.2 Q2298.44 1392.2 2302.1 1390.71 Q2305.79 1389.21 2309.04 1386.19 L2309.04 1392.9 Q2305.67 1395.2 2301.88 1396.34 Q2298.12 1397.49 2293.92 1397.49 Q2283.13 1397.49 2276.93 1390.9 Q2270.72 1384.28 2270.72 1372.85 Q2270.72 1361.39 2276.93 1354.8 Q2283.13 1348.18 2293.92 1348.18 Q2298.19 1348.18 2301.94 1349.33 Q2305.73 1350.44 2309.04 1352.7 Z" fill="#000000" fill-rule="nonzero" fill-opacity="1" /><path clip-path="url(#clip860)" d="M2317.79 1347.1 L2322.89 1347.1 Q2327.66 1354.61 2330.02 1361.81 Q2332.4 1369 2332.4 1376.1 Q2332.4 1383.23 2330.02 1390.45 Q2327.66 1397.68 2322.89 1405.16 L2317.79 1405.16 Q2322.03 1397.87 2324.1 1390.68 Q2326.2 1383.45 2326.2 1376.1 Q2326.2 1368.75 2324.1 1361.58 Q2322.03 1354.42 2317.79 1347.1 Z" fill="#000000" fill-rule="nonzero" fill-opacity="1" /><polyline clip-path="url(#clip860)" style="stroke:#000000; stroke-linecap:round; stroke-linejoin:round; stroke-width:4; stroke-opacity:1; fill:none" points="1727.95,1245.7 1727.95,108.352 "/>
<polyline clip-path="url(#clip860)" style="stroke:#000000; stroke-linecap:round; stroke-linejoin:round; stroke-width:4; stroke-opacity:1; fill:none" points="1727.95,1215.57 1746.85,1215.57 "/>
<polyline clip-path="url(#clip860)" style="stroke:#000000; stroke-linecap:round; stroke-linejoin:round; stroke-width:4; stroke-opacity:1; fill:none" points="1727.95,1009.66 1746.85,1009.66 "/>
<polyline clip-path="url(#clip860)" style="stroke:#000000; stroke-linecap:round; stroke-linejoin:round; stroke-width:4; stroke-opacity:1; fill:none" points="1727.95,803.755 1746.85,803.755 "/>
<polyline clip-path="url(#clip860)" style="stroke:#000000; stroke-linecap:round; stroke-linejoin:round; stroke-width:4; stroke-opacity:1; fill:none" points="1727.95,597.847 1746.85,597.847 "/>
<polyline clip-path="url(#clip860)" style="stroke:#000000; stroke-linecap:round; stroke-linejoin:round; stroke-width:4; stroke-opacity:1; fill:none" points="1727.95,391.939 1746.85,391.939 "/>
<polyline clip-path="url(#clip860)" style="stroke:#000000; stroke-linecap:round; stroke-linejoin:round; stroke-width:4; stroke-opacity:1; fill:none" points="1727.95,186.032 1746.85,186.032 "/>
<path clip-path="url(#clip860)" d="M1674.01 1201.37 Q1670.4 1201.37 1668.57 1204.93 Q1666.77 1208.47 1666.77 1215.6 Q1666.77 1222.71 1668.57 1226.28 Q1670.4 1229.82 1674.01 1229.82 Q1677.64 1229.82 1679.45 1226.28 Q1681.28 1222.71 1681.28 1215.6 Q1681.28 1208.47 1679.45 1204.93 Q1677.64 1201.37 1674.01 1201.37 M1674.01 1197.66 Q1679.82 1197.66 1682.88 1202.27 Q1685.95 1206.85 1685.95 1215.6 Q1685.95 1224.33 1682.88 1228.94 Q1679.82 1233.52 1674.01 1233.52 Q1668.2 1233.52 1665.12 1228.94 Q1662.07 1224.33 1662.07 1215.6 Q1662.07 1206.85 1665.12 1202.27 Q1668.2 1197.66 1674.01 1197.66 Z" fill="#000000" fill-rule="nonzero" fill-opacity="1" /><path clip-path="url(#clip860)" d="M1445.89 1029.45 L1453.53 1029.45 L1453.53 1003.09 L1445.22 1004.76 L1445.22 1000.5 L1453.49 998.83 L1458.16 998.83 L1458.16 1029.45 L1465.8 1029.45 L1465.8 1033.39 L1445.89 1033.39 L1445.89 1029.45 Z" fill="#000000" fill-rule="nonzero" fill-opacity="1" /><path clip-path="url(#clip860)" d="M1475.24 1027.51 L1480.13 1027.51 L1480.13 1033.39 L1475.24 1033.39 L1475.24 1027.51 Z" fill="#000000" fill-rule="nonzero" fill-opacity="1" /><path clip-path="url(#clip860)" d="M1500.31 1001.91 Q1496.7 1001.91 1494.87 1005.47 Q1493.07 1009.01 1493.07 1016.14 Q1493.07 1023.25 1494.87 1026.82 Q1496.7 1030.36 1500.31 1030.36 Q1503.95 1030.36 1505.75 1026.82 Q1507.58 1023.25 1507.58 1016.14 Q1507.58 1009.01 1505.75 1005.47 Q1503.95 1001.91 1500.31 1001.91 M1500.31 998.205 Q1506.12 998.205 1509.18 1002.81 Q1512.26 1007.39 1512.26 1016.14 Q1512.26 1024.87 1509.18 1029.48 Q1506.12 1034.06 1500.31 1034.06 Q1494.5 1034.06 1491.42 1029.48 Q1488.37 1024.87 1488.37 1016.14 Q1488.37 1007.39 1491.42 1002.81 Q1494.5 998.205 1500.31 998.205 Z" fill="#000000" fill-rule="nonzero" fill-opacity="1" /><path clip-path="url(#clip860)" d="M1548.65 1007.93 L1538.07 1018.55 L1548.65 1029.13 L1545.89 1031.93 L1535.27 1021.31 L1524.64 1031.93 L1521.91 1029.13 L1532.47 1018.55 L1521.91 1007.93 L1524.64 1005.13 L1535.27 1015.75 L1545.89 1005.13 L1548.65 1007.93 Z" fill="#000000" fill-rule="nonzero" fill-opacity="1" /><path clip-path="url(#clip860)" d="M1561.01 1029.45 L1568.65 1029.45 L1568.65 1003.09 L1560.34 1004.76 L1560.34 1000.5 L1568.6 998.83 L1573.28 998.83 L1573.28 1029.45 L1580.92 1029.45 L1580.92 1033.39 L1561.01 1033.39 L1561.01 1029.45 Z" fill="#000000" fill-rule="nonzero" fill-opacity="1" /><path clip-path="url(#clip860)" d="M1600.36 1001.91 Q1596.75 1001.91 1594.92 1005.47 Q1593.11 1009.01 1593.11 1016.14 Q1593.11 1023.25 1594.92 1026.82 Q1596.75 1030.36 1600.36 1030.36 Q1603.99 1030.36 1605.8 1026.82 Q1607.63 1023.25 1607.63 1016.14 Q1607.63 1009.01 1605.8 1005.47 Q1603.99 1001.91 1600.36 1001.91 M1600.36 998.205 Q1606.17 998.205 1609.23 1002.81 Q1612.3 1007.39 1612.3 1016.14 Q1612.3 1024.87 1609.23 1029.48 Q1606.17 1034.06 1600.36 1034.06 Q1594.55 1034.06 1591.47 1029.48 Q1588.41 1024.87 1588.41 1016.14 Q1588.41 1007.39 1591.47 1002.81 Q1594.55 998.205 1600.36 998.205 Z" fill="#000000" fill-rule="nonzero" fill-opacity="1" /><path clip-path="url(#clip860)" d="M1612.3 992.306 L1636.42 992.306 L1636.42 995.503 L1612.3 995.503 L1612.3 992.306 Z" fill="#000000" fill-rule="nonzero" fill-opacity="1" /><path clip-path="url(#clip860)" d="M1645.27 1002.78 L1651.48 1002.78 L1651.48 981.36 L1644.73 982.714 L1644.73 979.254 L1651.44 977.899 L1655.24 977.899 L1655.24 1002.78 L1661.45 1002.78 L1661.45 1005.98 L1645.27 1005.98 L1645.27 1002.78 Z" fill="#000000" fill-rule="nonzero" fill-opacity="1" /><path clip-path="url(#clip860)" d="M1669.78 1002.78 L1675.99 1002.78 L1675.99 981.36 L1669.23 982.714 L1669.23 979.254 L1675.95 977.899 L1679.75 977.899 L1679.75 1002.78 L1685.95 1002.78 L1685.95 1005.98 L1669.78 1005.98 L1669.78 1002.78 Z" fill="#000000" fill-rule="nonzero" fill-opacity="1" /><path clip-path="url(#clip860)" d="M1449.11 823.547 L1465.43 823.547 L1465.43 827.482 L1443.49 827.482 L1443.49 823.547 Q1446.15 820.792 1450.73 816.163 Q1455.34 811.51 1456.52 810.167 Q1458.76 807.644 1459.64 805.908 Q1460.55 804.149 1460.55 802.459 Q1460.55 799.704 1458.6 797.968 Q1456.68 796.232 1453.58 796.232 Q1451.38 796.232 1448.92 796.996 Q1446.49 797.76 1443.72 799.311 L1443.72 794.589 Q1446.54 793.455 1448.99 792.876 Q1451.45 792.297 1453.49 792.297 Q1458.86 792.297 1462.05 794.982 Q1465.24 797.667 1465.24 802.158 Q1465.24 804.288 1464.43 806.209 Q1463.65 808.107 1461.54 810.7 Q1460.96 811.371 1457.86 814.589 Q1454.76 817.783 1449.11 823.547 Z" fill="#000000" fill-rule="nonzero" fill-opacity="1" /><path clip-path="url(#clip860)" d="M1475.24 821.603 L1480.13 821.603 L1480.13 827.482 L1475.24 827.482 L1475.24 821.603 Z" fill="#000000" fill-rule="nonzero" fill-opacity="1" /><path clip-path="url(#clip860)" d="M1500.31 796.001 Q1496.7 796.001 1494.87 799.566 Q1493.07 803.107 1493.07 810.237 Q1493.07 817.343 1494.87 820.908 Q1496.7 824.45 1500.31 824.45 Q1503.95 824.45 1505.75 820.908 Q1507.58 817.343 1507.58 810.237 Q1507.58 803.107 1505.75 799.566 Q1503.95 796.001 1500.31 796.001 M1500.31 792.297 Q1506.12 792.297 1509.18 796.904 Q1512.26 801.487 1512.26 810.237 Q1512.26 818.964 1509.18 823.57 Q1506.12 828.153 1500.31 828.153 Q1494.5 828.153 1491.42 823.57 Q1488.37 818.964 1488.37 810.237 Q1488.37 801.487 1491.42 796.904 Q1494.5 792.297 1500.31 792.297 Z" fill="#000000" fill-rule="nonzero" fill-opacity="1" /><path clip-path="url(#clip860)" d="M1548.65 802.019 L1538.07 812.644 L1548.65 823.223 L1545.89 826.024 L1535.27 815.399 L1524.64 826.024 L1521.91 823.223 L1532.47 812.644 L1521.91 802.019 L1524.64 799.218 L1535.27 809.843 L1545.89 799.218 L1548.65 802.019 Z" fill="#000000" fill-rule="nonzero" fill-opacity="1" /><path clip-path="url(#clip860)" d="M1561.01 823.547 L1568.65 823.547 L1568.65 797.181 L1560.34 798.848 L1560.34 794.589 L1568.6 792.922 L1573.28 792.922 L1573.28 823.547 L1580.92 823.547 L1580.92 827.482 L1561.01 827.482 L1561.01 823.547 Z" fill="#000000" fill-rule="nonzero" fill-opacity="1" /><path clip-path="url(#clip860)" d="M1600.36 796.001 Q1596.75 796.001 1594.92 799.566 Q1593.11 803.107 1593.11 810.237 Q1593.11 817.343 1594.92 820.908 Q1596.75 824.45 1600.36 824.45 Q1603.99 824.45 1605.8 820.908 Q1607.63 817.343 1607.63 810.237 Q1607.63 803.107 1605.8 799.566 Q1603.99 796.001 1600.36 796.001 M1600.36 792.297 Q1606.17 792.297 1609.23 796.904 Q1612.3 801.487 1612.3 810.237 Q1612.3 818.964 1609.23 823.57 Q1606.17 828.153 1600.36 828.153 Q1594.55 828.153 1591.47 823.57 Q1588.41 818.964 1588.41 810.237 Q1588.41 801.487 1591.47 796.904 Q1594.55 792.297 1600.36 792.297 Z" fill="#000000" fill-rule="nonzero" fill-opacity="1" /><path clip-path="url(#clip860)" d="M1612.3 786.398 L1636.42 786.398 L1636.42 789.596 L1612.3 789.596 L1612.3 786.398 Z" fill="#000000" fill-rule="nonzero" fill-opacity="1" /><path clip-path="url(#clip860)" d="M1645.27 796.874 L1651.48 796.874 L1651.48 775.452 L1644.73 776.807 L1644.73 773.346 L1651.44 771.992 L1655.24 771.992 L1655.24 796.874 L1661.45 796.874 L1661.45 800.072 L1645.27 800.072 L1645.27 796.874 Z" fill="#000000" fill-rule="nonzero" fill-opacity="1" /><path clip-path="url(#clip860)" d="M1669.78 796.874 L1675.99 796.874 L1675.99 775.452 L1669.23 776.807 L1669.23 773.346 L1675.95 771.992 L1679.75 771.992 L1679.75 796.874 L1685.95 796.874 L1685.95 800.072 L1669.78 800.072 L1669.78 796.874 Z" fill="#000000" fill-rule="nonzero" fill-opacity="1" /><path clip-path="url(#clip860)" d="M1459.25 602.94 Q1462.61 603.658 1464.48 605.926 Q1466.38 608.195 1466.38 611.528 Q1466.38 616.644 1462.86 619.445 Q1459.34 622.246 1452.86 622.246 Q1450.68 622.246 1448.37 621.806 Q1446.08 621.389 1443.62 620.533 L1443.62 616.019 Q1445.57 617.153 1447.88 617.732 Q1450.2 618.311 1452.72 618.311 Q1457.12 618.311 1459.41 616.574 Q1461.73 614.838 1461.73 611.528 Q1461.73 608.473 1459.57 606.76 Q1457.44 605.024 1453.62 605.024 L1449.6 605.024 L1449.6 601.181 L1453.81 601.181 Q1457.26 601.181 1459.09 599.815 Q1460.92 598.426 1460.92 595.834 Q1460.92 593.172 1459.02 591.76 Q1457.14 590.325 1453.62 590.325 Q1451.7 590.325 1449.5 590.741 Q1447.3 591.158 1444.67 592.038 L1444.67 587.871 Q1447.33 587.13 1449.64 586.76 Q1451.98 586.389 1454.04 586.389 Q1459.36 586.389 1462.47 588.82 Q1465.57 591.227 1465.57 595.348 Q1465.57 598.218 1463.92 600.209 Q1462.28 602.176 1459.25 602.94 Z" fill="#000000" fill-rule="nonzero" fill-opacity="1" /><path clip-path="url(#clip860)" d="M1475.24 615.695 L1480.13 615.695 L1480.13 621.574 L1475.24 621.574 L1475.24 615.695 Z" fill="#000000" fill-rule="nonzero" fill-opacity="1" /><path clip-path="url(#clip860)" d="M1500.31 590.093 Q1496.7 590.093 1494.87 593.658 Q1493.07 597.2 1493.07 604.329 Q1493.07 611.436 1494.87 615 Q1496.7 618.542 1500.31 618.542 Q1503.95 618.542 1505.75 615 Q1507.58 611.436 1507.58 604.329 Q1507.58 597.2 1505.75 593.658 Q1503.95 590.093 1500.31 590.093 M1500.31 586.389 Q1506.12 586.389 1509.18 590.996 Q1512.26 595.579 1512.26 604.329 Q1512.26 613.056 1509.18 617.662 Q1506.12 622.246 1500.31 622.246 Q1494.5 622.246 1491.42 617.662 Q1488.37 613.056 1488.37 604.329 Q1488.37 595.579 1491.42 590.996 Q1494.5 586.389 1500.31 586.389 Z" fill="#000000" fill-rule="nonzero" fill-opacity="1" /><path clip-path="url(#clip860)" d="M1548.65 596.112 L1538.07 606.737 L1548.65 617.315 L1545.89 620.116 L1535.27 609.491 L1524.64 620.116 L1521.91 617.315 L1532.47 606.737 L1521.91 596.112 L1524.64 593.311 L1535.27 603.936 L1545.89 593.311 L1548.65 596.112 Z" fill="#000000" fill-rule="nonzero" fill-opacity="1" /><path clip-path="url(#clip860)" d="M1561.01 617.639 L1568.65 617.639 L1568.65 591.274 L1560.34 592.94 L1560.34 588.681 L1568.6 587.014 L1573.28 587.014 L1573.28 617.639 L1580.92 617.639 L1580.92 621.574 L1561.01 621.574 L1561.01 617.639 Z" fill="#000000" fill-rule="nonzero" fill-opacity="1" /><path clip-path="url(#clip860)" d="M1600.36 590.093 Q1596.75 590.093 1594.92 593.658 Q1593.11 597.2 1593.11 604.329 Q1593.11 611.436 1594.92 615 Q1596.75 618.542 1600.36 618.542 Q1603.99 618.542 1605.8 615 Q1607.63 611.436 1607.63 604.329 Q1607.63 597.2 1605.8 593.658 Q1603.99 590.093 1600.36 590.093 M1600.36 586.389 Q1606.17 586.389 1609.23 590.996 Q1612.3 595.579 1612.3 604.329 Q1612.3 613.056 1609.23 617.662 Q1606.17 622.246 1600.36 622.246 Q1594.55 622.246 1591.47 617.662 Q1588.41 613.056 1588.41 604.329 Q1588.41 595.579 1591.47 590.996 Q1594.55 586.389 1600.36 586.389 Z" fill="#000000" fill-rule="nonzero" fill-opacity="1" /><path clip-path="url(#clip860)" d="M1612.3 580.491 L1636.42 580.491 L1636.42 583.688 L1612.3 583.688 L1612.3 580.491 Z" fill="#000000" fill-rule="nonzero" fill-opacity="1" /><path clip-path="url(#clip860)" d="M1645.27 590.967 L1651.48 590.967 L1651.48 569.545 L1644.73 570.899 L1644.73 567.438 L1651.44 566.084 L1655.24 566.084 L1655.24 590.967 L1661.45 590.967 L1661.45 594.164 L1645.27 594.164 L1645.27 590.967 Z" fill="#000000" fill-rule="nonzero" fill-opacity="1" /><path clip-path="url(#clip860)" d="M1669.78 590.967 L1675.99 590.967 L1675.99 569.545 L1669.23 570.899 L1669.23 567.438 L1675.95 566.084 L1679.75 566.084 L1679.75 590.967 L1685.95 590.967 L1685.95 594.164 L1669.78 594.164 L1669.78 590.967 Z" fill="#000000" fill-rule="nonzero" fill-opacity="1" /><path clip-path="url(#clip860)" d="M1457.93 385.181 L1446.12 403.63 L1457.93 403.63 L1457.93 385.181 M1456.7 381.107 L1462.58 381.107 L1462.58 403.63 L1467.51 403.63 L1467.51 407.519 L1462.58 407.519 L1462.58 415.667 L1457.93 415.667 L1457.93 407.519 L1442.33 407.519 L1442.33 403.005 L1456.7 381.107 Z" fill="#000000" fill-rule="nonzero" fill-opacity="1" /><path clip-path="url(#clip860)" d="M1475.24 409.787 L1480.13 409.787 L1480.13 415.667 L1475.24 415.667 L1475.24 409.787 Z" fill="#000000" fill-rule="nonzero" fill-opacity="1" /><path clip-path="url(#clip860)" d="M1500.31 384.185 Q1496.7 384.185 1494.87 387.75 Q1493.07 391.292 1493.07 398.422 Q1493.07 405.528 1494.87 409.093 Q1496.7 412.634 1500.31 412.634 Q1503.95 412.634 1505.75 409.093 Q1507.58 405.528 1507.58 398.422 Q1507.58 391.292 1505.75 387.75 Q1503.95 384.185 1500.31 384.185 M1500.31 380.482 Q1506.12 380.482 1509.18 385.088 Q1512.26 389.672 1512.26 398.422 Q1512.26 407.148 1509.18 411.755 Q1506.12 416.338 1500.31 416.338 Q1494.5 416.338 1491.42 411.755 Q1488.37 407.148 1488.37 398.422 Q1488.37 389.672 1491.42 385.088 Q1494.5 380.482 1500.31 380.482 Z" fill="#000000" fill-rule="nonzero" fill-opacity="1" /><path clip-path="url(#clip860)" d="M1548.65 390.204 L1538.07 400.829 L1548.65 411.408 L1545.89 414.208 L1535.27 403.584 L1524.64 414.208 L1521.91 411.408 L1532.47 400.829 L1521.91 390.204 L1524.64 387.403 L1535.27 398.028 L1545.89 387.403 L1548.65 390.204 Z" fill="#000000" fill-rule="nonzero" fill-opacity="1" /><path clip-path="url(#clip860)" d="M1561.01 411.732 L1568.65 411.732 L1568.65 385.366 L1560.34 387.033 L1560.34 382.773 L1568.6 381.107 L1573.28 381.107 L1573.28 411.732 L1580.92 411.732 L1580.92 415.667 L1561.01 415.667 L1561.01 411.732 Z" fill="#000000" fill-rule="nonzero" fill-opacity="1" /><path clip-path="url(#clip860)" d="M1600.36 384.185 Q1596.75 384.185 1594.92 387.75 Q1593.11 391.292 1593.11 398.422 Q1593.11 405.528 1594.92 409.093 Q1596.75 412.634 1600.36 412.634 Q1603.99 412.634 1605.8 409.093 Q1607.63 405.528 1607.63 398.422 Q1607.63 391.292 1605.8 387.75 Q1603.99 384.185 1600.36 384.185 M1600.36 380.482 Q1606.17 380.482 1609.23 385.088 Q1612.3 389.672 1612.3 398.422 Q1612.3 407.148 1609.23 411.755 Q1606.17 416.338 1600.36 416.338 Q1594.55 416.338 1591.47 411.755 Q1588.41 407.148 1588.41 398.422 Q1588.41 389.672 1591.47 385.088 Q1594.55 380.482 1600.36 380.482 Z" fill="#000000" fill-rule="nonzero" fill-opacity="1" /><path clip-path="url(#clip860)" d="M1612.3 374.583 L1636.42 374.583 L1636.42 377.78 L1612.3 377.78 L1612.3 374.583 Z" fill="#000000" fill-rule="nonzero" fill-opacity="1" /><path clip-path="url(#clip860)" d="M1645.27 385.059 L1651.48 385.059 L1651.48 363.637 L1644.73 364.991 L1644.73 361.531 L1651.44 360.176 L1655.24 360.176 L1655.24 385.059 L1661.45 385.059 L1661.45 388.256 L1645.27 388.256 L1645.27 385.059 Z" fill="#000000" fill-rule="nonzero" fill-opacity="1" /><path clip-path="url(#clip860)" d="M1669.78 385.059 L1675.99 385.059 L1675.99 363.637 L1669.23 364.991 L1669.23 361.531 L1675.95 360.176 L1679.75 360.176 L1679.75 385.059 L1685.95 385.059 L1685.95 388.256 L1669.78 388.256 L1669.78 385.059 Z" fill="#000000" fill-rule="nonzero" fill-opacity="1" /><path clip-path="url(#clip860)" d="M1445.13 175.199 L1463.49 175.199 L1463.49 179.134 L1449.41 179.134 L1449.41 187.606 Q1450.43 187.259 1451.45 187.097 Q1452.47 186.912 1453.49 186.912 Q1459.27 186.912 1462.65 190.083 Q1466.03 193.255 1466.03 198.671 Q1466.03 204.25 1462.56 207.352 Q1459.09 210.43 1452.77 210.43 Q1450.59 210.43 1448.32 210.06 Q1446.08 209.69 1443.67 208.949 L1443.67 204.25 Q1445.75 205.384 1447.98 205.94 Q1450.2 206.495 1452.67 206.495 Q1456.68 206.495 1459.02 204.389 Q1461.36 202.282 1461.36 198.671 Q1461.36 195.06 1459.02 192.954 Q1456.68 190.847 1452.67 190.847 Q1450.8 190.847 1448.92 191.264 Q1447.07 191.681 1445.13 192.56 L1445.13 175.199 Z" fill="#000000" fill-rule="nonzero" fill-opacity="1" /><path clip-path="url(#clip860)" d="M1475.24 203.88 L1480.13 203.88 L1480.13 209.759 L1475.24 209.759 L1475.24 203.88 Z" fill="#000000" fill-rule="nonzero" fill-opacity="1" /><path clip-path="url(#clip860)" d="M1500.31 178.278 Q1496.7 178.278 1494.87 181.843 Q1493.07 185.384 1493.07 192.514 Q1493.07 199.62 1494.87 203.185 Q1496.7 206.727 1500.31 206.727 Q1503.95 206.727 1505.75 203.185 Q1507.58 199.62 1507.58 192.514 Q1507.58 185.384 1505.75 181.843 Q1503.95 178.278 1500.31 178.278 M1500.31 174.574 Q1506.12 174.574 1509.18 179.181 Q1512.26 183.764 1512.26 192.514 Q1512.26 201.241 1509.18 205.847 Q1506.12 210.43 1500.31 210.43 Q1494.5 210.43 1491.42 205.847 Q1488.37 201.241 1488.37 192.514 Q1488.37 183.764 1491.42 179.181 Q1494.5 174.574 1500.31 174.574 Z" fill="#000000" fill-rule="nonzero" fill-opacity="1" /><path clip-path="url(#clip860)" d="M1548.65 184.296 L1538.07 194.921 L1548.65 205.5 L1545.89 208.301 L1535.27 197.676 L1524.64 208.301 L1521.91 205.5 L1532.47 194.921 L1521.91 184.296 L1524.64 181.495 L1535.27 192.12 L1545.89 181.495 L1548.65 184.296 Z" fill="#000000" fill-rule="nonzero" fill-opacity="1" /><path clip-path="url(#clip860)" d="M1561.01 205.824 L1568.65 205.824 L1568.65 179.458 L1560.34 181.125 L1560.34 176.866 L1568.6 175.199 L1573.28 175.199 L1573.28 205.824 L1580.92 205.824 L1580.92 209.759 L1561.01 209.759 L1561.01 205.824 Z" fill="#000000" fill-rule="nonzero" fill-opacity="1" /><path clip-path="url(#clip860)" d="M1600.36 178.278 Q1596.75 178.278 1594.92 181.843 Q1593.11 185.384 1593.11 192.514 Q1593.11 199.62 1594.92 203.185 Q1596.75 206.727 1600.36 206.727 Q1603.99 206.727 1605.8 203.185 Q1607.63 199.62 1607.63 192.514 Q1607.63 185.384 1605.8 181.843 Q1603.99 178.278 1600.36 178.278 M1600.36 174.574 Q1606.17 174.574 1609.23 179.181 Q1612.3 183.764 1612.3 192.514 Q1612.3 201.241 1609.23 205.847 Q1606.17 210.43 1600.36 210.43 Q1594.55 210.43 1591.47 205.847 Q1588.41 201.241 1588.41 192.514 Q1588.41 183.764 1591.47 179.181 Q1594.55 174.574 1600.36 174.574 Z" fill="#000000" fill-rule="nonzero" fill-opacity="1" /><path clip-path="url(#clip860)" d="M1612.3 168.676 L1636.42 168.676 L1636.42 171.873 L1612.3 171.873 L1612.3 168.676 Z" fill="#000000" fill-rule="nonzero" fill-opacity="1" /><path clip-path="url(#clip860)" d="M1645.27 179.151 L1651.48 179.151 L1651.48 157.729 L1644.73 159.084 L1644.73 155.623 L1651.44 154.269 L1655.24 154.269 L1655.24 179.151 L1661.45 179.151 L1661.45 182.349 L1645.27 182.349 L1645.27 179.151 Z" fill="#000000" fill-rule="nonzero" fill-opacity="1" /><path clip-path="url(#clip860)" d="M1669.78 179.151 L1675.99 179.151 L1675.99 157.729 L1669.23 159.084 L1669.23 155.623 L1675.95 154.269 L1679.75 154.269 L1679.75 179.151 L1685.95 179.151 L1685.95 182.349 L1669.78 182.349 L1669.78 179.151 Z" fill="#000000" fill-rule="nonzero" fill-opacity="1" /><path clip-path="url(#clip860)" d="M1364.56 790.351 L1386.07 790.351 L1386.07 796.208 L1364.75 796.208 Q1359.69 796.208 1357.17 798.181 Q1354.66 800.155 1354.66 804.101 Q1354.66 808.844 1357.68 811.581 Q1360.7 814.318 1365.92 814.318 L1386.07 814.318 L1386.07 820.207 L1350.42 820.207 L1350.42 814.318 L1355.96 814.318 Q1352.75 812.218 1351.16 809.385 Q1349.56 806.52 1349.56 802.796 Q1349.56 796.654 1353.38 793.503 Q1357.17 790.351 1364.56 790.351 Z" fill="#000000" fill-rule="nonzero" fill-opacity="1" /><path clip-path="url(#clip860)" d="M1336.61 743.882 Q1343.93 748.147 1351.09 750.216 Q1358.25 752.285 1365.61 752.285 Q1372.96 752.285 1380.18 750.216 Q1387.38 748.115 1394.67 743.882 L1394.67 748.974 Q1387.19 753.749 1379.96 756.136 Q1372.74 758.491 1365.61 758.491 Q1358.51 758.491 1351.32 756.136 Q1344.12 753.78 1336.61 748.974 L1336.61 743.882 Z" fill="#000000" fill-rule="nonzero" fill-opacity="1" /><path clip-path="url(#clip860)" d="M1357.27 704.765 Q1353.32 702.568 1351.44 699.513 Q1349.56 696.457 1349.56 692.32 Q1349.56 686.75 1353.48 683.726 Q1357.36 680.702 1364.56 680.702 L1386.07 680.702 L1386.07 686.59 L1364.75 686.59 Q1359.62 686.59 1357.14 688.405 Q1354.66 690.219 1354.66 693.943 Q1354.66 698.494 1357.68 701.136 Q1360.7 703.778 1365.92 703.778 L1386.07 703.778 L1386.07 709.666 L1364.75 709.666 Q1359.59 709.666 1357.14 711.48 Q1354.66 713.295 1354.66 717.082 Q1354.66 721.57 1357.71 724.212 Q1360.74 726.854 1365.92 726.854 L1386.07 726.854 L1386.07 732.742 L1350.42 732.742 L1350.42 726.854 L1355.96 726.854 Q1352.68 724.848 1351.12 722.047 Q1349.56 719.247 1349.56 715.395 Q1349.56 711.512 1351.54 708.807 Q1353.51 706.07 1357.27 704.765 Z" fill="#000000" fill-rule="nonzero" fill-opacity="1" /><path clip-path="url(#clip860)" d="M1357.27 641.267 Q1353.32 639.07 1351.44 636.015 Q1349.56 632.959 1349.56 628.822 Q1349.56 623.252 1353.48 620.228 Q1357.36 617.204 1364.56 617.204 L1386.07 617.204 L1386.07 623.093 L1364.75 623.093 Q1359.62 623.093 1357.14 624.907 Q1354.66 626.721 1354.66 630.445 Q1354.66 634.996 1357.68 637.638 Q1360.7 640.28 1365.92 640.28 L1386.07 640.28 L1386.07 646.168 L1364.75 646.168 Q1359.59 646.168 1357.14 647.982 Q1354.66 649.797 1354.66 653.584 Q1354.66 658.072 1357.71 660.714 Q1360.74 663.356 1365.92 663.356 L1386.07 663.356 L1386.07 669.244 L1350.42 669.244 L1350.42 663.356 L1355.96 663.356 Q1352.68 661.35 1351.12 658.55 Q1349.56 655.749 1349.56 651.897 Q1349.56 648.014 1351.54 645.309 Q1353.51 642.572 1357.27 641.267 Z" fill="#000000" fill-rule="nonzero" fill-opacity="1" /><path clip-path="url(#clip860)" d="M1354.53 591.71 Q1354.53 596.42 1358.22 599.157 Q1361.88 601.895 1368.28 601.895 Q1374.68 601.895 1378.37 599.189 Q1382.03 596.452 1382.03 591.71 Q1382.03 587.031 1378.34 584.294 Q1374.65 581.556 1368.28 581.556 Q1361.95 581.556 1358.25 584.294 Q1354.53 587.031 1354.53 591.71 M1349.56 591.71 Q1349.56 584.071 1354.53 579.71 Q1359.49 575.35 1368.28 575.35 Q1377.03 575.35 1382.03 579.71 Q1386.99 584.071 1386.99 591.71 Q1386.99 599.38 1382.03 603.741 Q1377.03 608.069 1368.28 608.069 Q1359.49 608.069 1354.53 603.741 Q1349.56 599.38 1349.56 591.71 Z" fill="#000000" fill-rule="nonzero" fill-opacity="1" /><path clip-path="url(#clip860)" d="M1336.55 565.642 L1336.55 559.786 L1386.07 559.786 L1386.07 565.642 L1336.55 565.642 Z" fill="#000000" fill-rule="nonzero" fill-opacity="1" /><path clip-path="url(#clip860)" d="M1336.61 548.455 L1336.61 543.362 Q1344.12 538.588 1351.32 536.232 Q1358.51 533.845 1365.61 533.845 Q1372.74 533.845 1379.96 536.232 Q1387.19 538.588 1394.67 543.362 L1394.67 548.455 Q1387.38 544.221 1380.18 542.153 Q1372.96 540.052 1365.61 540.052 Q1358.25 540.052 1351.09 542.153 Q1343.93 544.221 1336.61 548.455 Z" fill="#000000" fill-rule="nonzero" fill-opacity="1" /><path clip-path="url(#clip860)" d="M1886.53 18.8205 L1886.53 65.8515 L1896.41 65.8515 Q1908.93 65.8515 1914.72 60.1802 Q1920.56 54.509 1920.56 42.2752 Q1920.56 30.1225 1914.72 24.4918 Q1908.93 18.8205 1896.41 18.8205 L1886.53 18.8205 M1878.35 12.096 L1895.16 12.096 Q1912.74 12.096 1920.96 19.4281 Q1929.19 26.7198 1929.19 42.2752 Q1929.19 57.9117 1920.92 65.2439 Q1912.66 72.576 1895.16 72.576 L1878.35 72.576 L1878.35 12.096 Z" fill="#000000" fill-rule="nonzero" fill-opacity="1" /><path clip-path="url(#clip860)" d="M1941.91 27.2059 L1949.36 27.2059 L1949.36 72.576 L1941.91 72.576 L1941.91 27.2059 M1941.91 9.54393 L1949.36 9.54393 L1949.36 18.9825 L1941.91 18.9825 L1941.91 9.54393 Z" fill="#000000" fill-rule="nonzero" fill-opacity="1" /><path clip-path="url(#clip860)" d="M1993.88 28.5427 L1993.88 35.5912 Q1990.72 33.9709 1987.32 33.1607 Q1983.91 32.3505 1980.27 32.3505 Q1974.72 32.3505 1971.92 34.0519 Q1969.17 35.7533 1969.17 39.156 Q1969.17 41.7486 1971.15 43.2475 Q1973.14 44.7058 1979.13 46.0426 L1981.68 46.6097 Q1989.62 48.3111 1992.95 51.4303 Q1996.31 54.509 1996.31 60.0587 Q1996.31 66.3781 1991.29 70.0644 Q1986.3 73.7508 1977.55 73.7508 Q1973.91 73.7508 1969.94 73.0216 Q1966.01 72.3329 1961.63 70.9151 L1961.63 63.2184 Q1965.76 65.3654 1969.78 66.4591 Q1973.79 67.5124 1977.72 67.5124 Q1982.98 67.5124 1985.82 65.73 Q1988.65 63.9071 1988.65 60.6258 Q1988.65 57.5877 1986.59 55.9673 Q1984.56 54.3469 1977.63 52.8481 L1975.04 52.2405 Q1968.11 50.7821 1965.04 47.7845 Q1961.96 44.7463 1961.96 39.4801 Q1961.96 33.0797 1966.49 29.5959 Q1971.03 26.1121 1979.38 26.1121 Q1983.51 26.1121 1987.15 26.7198 Q1990.8 27.3274 1993.88 28.5427 Z" fill="#000000" fill-rule="nonzero" fill-opacity="1" /><path clip-path="url(#clip860)" d="M2037.1 28.5427 L2037.1 35.5912 Q2033.94 33.9709 2030.54 33.1607 Q2027.14 32.3505 2023.49 32.3505 Q2017.94 32.3505 2015.15 34.0519 Q2012.39 35.7533 2012.39 39.156 Q2012.39 41.7486 2014.38 43.2475 Q2016.36 44.7058 2022.36 46.0426 L2024.91 46.6097 Q2032.85 48.3111 2036.17 51.4303 Q2039.53 54.509 2039.53 60.0587 Q2039.53 66.3781 2034.51 70.0644 Q2029.53 73.7508 2020.78 73.7508 Q2017.13 73.7508 2013.16 73.0216 Q2009.23 72.3329 2004.86 70.9151 L2004.86 63.2184 Q2008.99 65.3654 2013 66.4591 Q2017.01 67.5124 2020.94 67.5124 Q2026.2 67.5124 2029.04 65.73 Q2031.88 63.9071 2031.88 60.6258 Q2031.88 57.5877 2029.81 55.9673 Q2027.78 54.3469 2020.86 52.8481 L2018.26 52.2405 Q2011.34 50.7821 2008.26 47.7845 Q2005.18 44.7463 2005.18 39.4801 Q2005.18 33.0797 2009.72 29.5959 Q2014.25 26.1121 2022.6 26.1121 Q2026.73 26.1121 2030.38 26.7198 Q2034.02 27.3274 2037.1 28.5427 Z" fill="#000000" fill-rule="nonzero" fill-opacity="1" /><path clip-path="url(#clip860)" d="M2068.98 32.4315 Q2062.99 32.4315 2059.5 37.1306 Q2056.02 41.7891 2056.02 49.9314 Q2056.02 58.0738 2059.46 62.7728 Q2062.95 67.4314 2068.98 67.4314 Q2074.94 67.4314 2078.42 62.7323 Q2081.9 58.0333 2081.9 49.9314 Q2081.9 41.8701 2078.42 37.1711 Q2074.94 32.4315 2068.98 32.4315 M2068.98 26.1121 Q2078.7 26.1121 2084.25 32.4315 Q2089.8 38.7509 2089.8 49.9314 Q2089.8 61.0714 2084.25 67.4314 Q2078.7 73.7508 2068.98 73.7508 Q2059.22 73.7508 2053.67 67.4314 Q2048.16 61.0714 2048.16 49.9314 Q2048.16 38.7509 2053.67 32.4315 Q2059.22 26.1121 2068.98 26.1121 Z" fill="#000000" fill-rule="nonzero" fill-opacity="1" /><path clip-path="url(#clip860)" d="M2102.16 9.54393 L2109.61 9.54393 L2109.61 72.576 L2102.16 72.576 L2102.16 9.54393 Z" fill="#000000" fill-rule="nonzero" fill-opacity="1" /><path clip-path="url(#clip860)" d="M2119.86 27.2059 L2127.76 27.2059 L2141.94 65.2844 L2156.12 27.2059 L2164.02 27.2059 L2147 72.576 L2136.88 72.576 L2119.86 27.2059 Z" fill="#000000" fill-rule="nonzero" fill-opacity="1" /><path clip-path="url(#clip860)" d="M2213.11 48.0275 L2213.11 51.6733 L2178.84 51.6733 Q2179.33 59.3701 2183.46 63.421 Q2187.63 67.4314 2195.05 67.4314 Q2199.34 67.4314 2203.35 66.3781 Q2207.4 65.3249 2211.37 63.2184 L2211.37 70.267 Q2207.36 71.9684 2203.15 72.8596 Q2198.93 73.7508 2194.6 73.7508 Q2183.74 73.7508 2177.38 67.4314 Q2171.06 61.1119 2171.06 50.3365 Q2171.06 39.1965 2177.06 32.6746 Q2183.1 26.1121 2193.3 26.1121 Q2202.46 26.1121 2207.77 32.0264 Q2213.11 37.9003 2213.11 48.0275 M2205.66 45.84 Q2205.58 39.7232 2202.22 36.0774 Q2198.89 32.4315 2193.39 32.4315 Q2187.15 32.4315 2183.38 35.9558 Q2179.65 39.4801 2179.09 45.8805 L2205.66 45.84 Z" fill="#000000" fill-rule="nonzero" fill-opacity="1" /><path clip-path="url(#clip860)" d="M2255.2 34.0924 L2255.2 9.54393 L2262.66 9.54393 L2262.66 72.576 L2255.2 72.576 L2255.2 65.7705 Q2252.85 69.8214 2249.25 71.8063 Q2245.68 73.7508 2240.66 73.7508 Q2232.44 73.7508 2227.25 67.1883 Q2222.11 60.6258 2222.11 49.9314 Q2222.11 39.2371 2227.25 32.6746 Q2232.44 26.1121 2240.66 26.1121 Q2245.68 26.1121 2249.25 28.0971 Q2252.85 30.0415 2255.2 34.0924 M2229.8 49.9314 Q2229.8 58.1548 2233.17 62.8538 Q2236.57 67.5124 2242.48 67.5124 Q2248.4 67.5124 2251.8 62.8538 Q2255.2 58.1548 2255.2 49.9314 Q2255.2 41.7081 2251.8 37.0496 Q2248.4 32.3505 2242.48 32.3505 Q2236.57 32.3505 2233.17 37.0496 Q2229.8 41.7081 2229.8 49.9314 Z" fill="#000000" fill-rule="nonzero" fill-opacity="1" /><path clip-path="url(#clip860)" d="M2333.3 28.5427 L2333.3 35.5912 Q2330.14 33.9709 2326.74 33.1607 Q2323.34 32.3505 2319.69 32.3505 Q2314.14 32.3505 2311.35 34.0519 Q2308.59 35.7533 2308.59 39.156 Q2308.59 41.7486 2310.58 43.2475 Q2312.56 44.7058 2318.56 46.0426 L2321.11 46.6097 Q2329.05 48.3111 2332.37 51.4303 Q2335.73 54.509 2335.73 60.0587 Q2335.73 66.3781 2330.71 70.0644 Q2325.73 73.7508 2316.98 73.7508 Q2313.33 73.7508 2309.36 73.0216 Q2305.43 72.3329 2301.06 70.9151 L2301.06 63.2184 Q2305.19 65.3654 2309.2 66.4591 Q2313.21 67.5124 2317.14 67.5124 Q2322.41 67.5124 2325.24 65.73 Q2328.08 63.9071 2328.08 60.6258 Q2328.08 57.5877 2326.01 55.9673 Q2323.99 54.3469 2317.06 52.8481 L2314.47 52.2405 Q2307.54 50.7821 2304.46 47.7845 Q2301.38 44.7463 2301.38 39.4801 Q2301.38 33.0797 2305.92 29.5959 Q2310.46 26.1121 2318.8 26.1121 Q2322.93 26.1121 2326.58 26.7198 Q2330.22 27.3274 2333.3 28.5427 Z" fill="#000000" fill-rule="nonzero" fill-opacity="1" /><path clip-path="url(#clip860)" d="M2354.81 65.7705 L2354.81 89.8329 L2347.32 89.8329 L2347.32 27.2059 L2354.81 27.2059 L2354.81 34.0924 Q2357.16 30.0415 2360.73 28.0971 Q2364.33 26.1121 2369.32 26.1121 Q2377.58 26.1121 2382.72 32.6746 Q2387.91 39.2371 2387.91 49.9314 Q2387.91 60.6258 2382.72 67.1883 Q2377.58 73.7508 2369.32 73.7508 Q2364.33 73.7508 2360.73 71.8063 Q2357.16 69.8214 2354.81 65.7705 M2380.17 49.9314 Q2380.17 41.7081 2376.77 37.0496 Q2373.41 32.3505 2367.49 32.3505 Q2361.58 32.3505 2358.18 37.0496 Q2354.81 41.7081 2354.81 49.9314 Q2354.81 58.1548 2358.18 62.8538 Q2361.58 67.5124 2367.49 67.5124 Q2373.41 67.5124 2376.77 62.8538 Q2380.17 58.1548 2380.17 49.9314 Z" fill="#000000" fill-rule="nonzero" fill-opacity="1" /><path clip-path="url(#clip860)" d="M2439.07 48.0275 L2439.07 51.6733 L2404.8 51.6733 Q2405.29 59.3701 2409.42 63.421 Q2413.59 67.4314 2421.01 67.4314 Q2425.3 67.4314 2429.31 66.3781 Q2433.36 65.3249 2437.33 63.2184 L2437.33 70.267 Q2433.32 71.9684 2429.11 72.8596 Q2424.89 73.7508 2420.56 73.7508 Q2409.7 73.7508 2403.34 67.4314 Q2397.02 61.1119 2397.02 50.3365 Q2397.02 39.1965 2403.02 32.6746 Q2409.06 26.1121 2419.26 26.1121 Q2428.42 26.1121 2433.73 32.0264 Q2439.07 37.9003 2439.07 48.0275 M2431.62 45.84 Q2431.54 39.7232 2428.18 36.0774 Q2424.85 32.4315 2419.34 32.4315 Q2413.11 32.4315 2409.34 35.9558 Q2405.61 39.4801 2405.04 45.8805 L2431.62 45.84 Z" fill="#000000" fill-rule="nonzero" fill-opacity="1" /><path clip-path="url(#clip860)" d="M2483.96 28.9478 L2483.96 35.9153 Q2480.8 34.1734 2477.6 33.3227 Q2474.44 32.4315 2471.2 32.4315 Q2463.95 32.4315 2459.93 37.0496 Q2455.92 41.6271 2455.92 49.9314 Q2455.92 58.2358 2459.93 62.8538 Q2463.95 67.4314 2471.2 67.4314 Q2474.44 67.4314 2477.6 66.5807 Q2480.8 65.6895 2483.96 63.9476 L2483.96 70.8341 Q2480.84 72.2924 2477.48 73.0216 Q2474.15 73.7508 2470.39 73.7508 Q2460.14 73.7508 2454.1 67.3098 Q2448.07 60.8689 2448.07 49.9314 Q2448.07 38.832 2454.14 32.472 Q2460.26 26.1121 2470.87 26.1121 Q2474.32 26.1121 2477.6 26.8413 Q2480.88 27.5299 2483.96 28.9478 Z" fill="#000000" fill-rule="nonzero" fill-opacity="1" /><path clip-path="url(#clip860)" d="M2496.92 27.2059 L2504.37 27.2059 L2504.37 72.576 L2496.92 72.576 L2496.92 27.2059 M2496.92 9.54393 L2504.37 9.54393 L2504.37 18.9825 L2496.92 18.9825 L2496.92 9.54393 Z" fill="#000000" fill-rule="nonzero" fill-opacity="1" /><path clip-path="url(#clip860)" d="M2558.78 48.0275 L2558.78 51.6733 L2524.51 51.6733 Q2524.99 59.3701 2529.12 63.421 Q2533.3 67.4314 2540.71 67.4314 Q2545 67.4314 2549.01 66.3781 Q2553.06 65.3249 2557.03 63.2184 L2557.03 70.267 Q2553.02 71.9684 2548.81 72.8596 Q2544.6 73.7508 2540.26 73.7508 Q2529.41 73.7508 2523.05 67.4314 Q2516.73 61.1119 2516.73 50.3365 Q2516.73 39.1965 2522.72 32.6746 Q2528.76 26.1121 2538.97 26.1121 Q2548.12 26.1121 2553.43 32.0264 Q2558.78 37.9003 2558.78 48.0275 M2551.32 45.84 Q2551.24 39.7232 2547.88 36.0774 Q2544.56 32.4315 2539.05 32.4315 Q2532.81 32.4315 2529.04 35.9558 Q2525.32 39.4801 2524.75 45.8805 L2551.32 45.84 Z" fill="#000000" fill-rule="nonzero" fill-opacity="1" /><path clip-path="url(#clip860)" d="M2599.93 28.5427 L2599.93 35.5912 Q2596.77 33.9709 2593.37 33.1607 Q2589.97 32.3505 2586.32 32.3505 Q2580.77 32.3505 2577.98 34.0519 Q2575.22 35.7533 2575.22 39.156 Q2575.22 41.7486 2577.21 43.2475 Q2579.19 44.7058 2585.19 46.0426 L2587.74 46.6097 Q2595.68 48.3111 2599 51.4303 Q2602.36 54.509 2602.36 60.0587 Q2602.36 66.3781 2597.34 70.0644 Q2592.36 73.7508 2583.61 73.7508 Q2579.96 73.7508 2575.99 73.0216 Q2572.06 72.3329 2567.69 70.9151 L2567.69 63.2184 Q2571.82 65.3654 2575.83 66.4591 Q2579.84 67.5124 2583.77 67.5124 Q2589.04 67.5124 2591.87 65.73 Q2594.71 63.9071 2594.71 60.6258 Q2594.71 57.5877 2592.64 55.9673 Q2590.62 54.3469 2583.69 52.8481 L2581.1 52.2405 Q2574.17 50.7821 2571.09 47.7845 Q2568.01 44.7463 2568.01 39.4801 Q2568.01 33.0797 2572.55 29.5959 Q2577.09 26.1121 2585.43 26.1121 Q2589.56 26.1121 2593.21 26.7198 Q2596.86 27.3274 2599.93 28.5427 Z" fill="#000000" fill-rule="nonzero" fill-opacity="1" /><polyline clip-path="url(#clip861)" style="stroke:#009af9; stroke-linecap:round; stroke-linejoin:round; stroke-width:8; stroke-opacity:1; fill:none" points="1756.96,1213.51 1805.3,1213.51 1853.64,1213.51 1901.98,1213.51 1950.32,1213.51 1998.66,1213.51 2047,1213.51 2095.34,1213.51 2143.68,1213.51 2192.02,1213.51 2240.36,1213.51 2288.7,1213.51 2337.03,1213.51 2385.37,1213.51 2433.71,1213.51 2482.05,1213.51 2530.39,1213.51 2578.73,1213.51 2627.07,1213.51 2675.41,1213.51 2723.75,1213.51 "/>
<circle clip-path="url(#clip861)" cx="1756.96" cy="1213.51" r="14.4" fill="#009af9" fill-rule="evenodd" fill-opacity="1" stroke="#000000" stroke-opacity="1" stroke-width="2.8"/>
<circle clip-path="url(#clip861)" cx="1805.3" cy="1213.51" r="14.4" fill="#009af9" fill-rule="evenodd" fill-opacity="1" stroke="#000000" stroke-opacity="1" stroke-width="2.8"/>
<circle clip-path="url(#clip861)" cx="1853.64" cy="1213.51" r="14.4" fill="#009af9" fill-rule="evenodd" fill-opacity="1" stroke="#000000" stroke-opacity="1" stroke-width="2.8"/>
<circle clip-path="url(#clip861)" cx="1901.98" cy="1213.51" r="14.4" fill="#009af9" fill-rule="evenodd" fill-opacity="1" stroke="#000000" stroke-opacity="1" stroke-width="2.8"/>
<circle clip-path="url(#clip861)" cx="1950.32" cy="1213.51" r="14.4" fill="#009af9" fill-rule="evenodd" fill-opacity="1" stroke="#000000" stroke-opacity="1" stroke-width="2.8"/>
<circle clip-path="url(#clip861)" cx="1998.66" cy="1213.51" r="14.4" fill="#009af9" fill-rule="evenodd" fill-opacity="1" stroke="#000000" stroke-opacity="1" stroke-width="2.8"/>
<circle clip-path="url(#clip861)" cx="2047" cy="1213.51" r="14.4" fill="#009af9" fill-rule="evenodd" fill-opacity="1" stroke="#000000" stroke-opacity="1" stroke-width="2.8"/>
<circle clip-path="url(#clip861)" cx="2095.34" cy="1213.51" r="14.4" fill="#009af9" fill-rule="evenodd" fill-opacity="1" stroke="#000000" stroke-opacity="1" stroke-width="2.8"/>
<circle clip-path="url(#clip861)" cx="2143.68" cy="1213.51" r="14.4" fill="#009af9" fill-rule="evenodd" fill-opacity="1" stroke="#000000" stroke-opacity="1" stroke-width="2.8"/>
<circle clip-path="url(#clip861)" cx="2192.02" cy="1213.51" r="14.4" fill="#009af9" fill-rule="evenodd" fill-opacity="1" stroke="#000000" stroke-opacity="1" stroke-width="2.8"/>
<circle clip-path="url(#clip861)" cx="2240.36" cy="1213.51" r="14.4" fill="#009af9" fill-rule="evenodd" fill-opacity="1" stroke="#000000" stroke-opacity="1" stroke-width="2.8"/>
<circle clip-path="url(#clip861)" cx="2288.7" cy="1213.51" r="14.4" fill="#009af9" fill-rule="evenodd" fill-opacity="1" stroke="#000000" stroke-opacity="1" stroke-width="2.8"/>
<circle clip-path="url(#clip861)" cx="2337.03" cy="1213.51" r="14.4" fill="#009af9" fill-rule="evenodd" fill-opacity="1" stroke="#000000" stroke-opacity="1" stroke-width="2.8"/>
<circle clip-path="url(#clip861)" cx="2385.37" cy="1213.51" r="14.4" fill="#009af9" fill-rule="evenodd" fill-opacity="1" stroke="#000000" stroke-opacity="1" stroke-width="2.8"/>
<circle clip-path="url(#clip861)" cx="2433.71" cy="1213.51" r="14.4" fill="#009af9" fill-rule="evenodd" fill-opacity="1" stroke="#000000" stroke-opacity="1" stroke-width="2.8"/>
<circle clip-path="url(#clip861)" cx="2482.05" cy="1213.51" r="14.4" fill="#009af9" fill-rule="evenodd" fill-opacity="1" stroke="#000000" stroke-opacity="1" stroke-width="2.8"/>
<circle clip-path="url(#clip861)" cx="2530.39" cy="1213.51" r="14.4" fill="#009af9" fill-rule="evenodd" fill-opacity="1" stroke="#000000" stroke-opacity="1" stroke-width="2.8"/>
<circle clip-path="url(#clip861)" cx="2578.73" cy="1213.51" r="14.4" fill="#009af9" fill-rule="evenodd" fill-opacity="1" stroke="#000000" stroke-opacity="1" stroke-width="2.8"/>
<circle clip-path="url(#clip861)" cx="2627.07" cy="1213.51" r="14.4" fill="#009af9" fill-rule="evenodd" fill-opacity="1" stroke="#000000" stroke-opacity="1" stroke-width="2.8"/>
<circle clip-path="url(#clip861)" cx="2675.41" cy="1213.51" r="14.4" fill="#009af9" fill-rule="evenodd" fill-opacity="1" stroke="#000000" stroke-opacity="1" stroke-width="2.8"/>
<circle clip-path="url(#clip861)" cx="2723.75" cy="1213.51" r="14.4" fill="#009af9" fill-rule="evenodd" fill-opacity="1" stroke="#000000" stroke-opacity="1" stroke-width="2.8"/>
<polyline clip-path="url(#clip861)" style="stroke:#e26f46; stroke-linecap:round; stroke-linejoin:round; stroke-width:8; stroke-opacity:1; fill:none" points="1756.96,220.777 1805.3,217.106 1853.64,213.398 1901.98,209.653 1950.32,205.872 1998.66,202.055 2047,198.202 2095.34,194.313 2143.68,190.387 2192.02,186.426 2240.36,182.43 2288.7,178.398 2337.03,174.331 2385.37,170.229 2433.71,166.092 2482.05,161.919 2530.39,157.713 2578.73,153.471 2627.07,149.196 2675.41,144.885 2723.75,140.541 "/>
<path clip-path="url(#clip861)" d="M1740.96 204.777 L1740.96 236.777 L1772.96 236.777 L1772.96 204.777 L1740.96 204.777 Z" fill="#e26f46" fill-rule="evenodd" fill-opacity="1" stroke="#000000" stroke-opacity="1" stroke-width="2.8"/>
<path clip-path="url(#clip861)" d="M1789.3 201.106 L1789.3 233.106 L1821.3 233.106 L1821.3 201.106 L1789.3 201.106 Z" fill="#e26f46" fill-rule="evenodd" fill-opacity="1" stroke="#000000" stroke-opacity="1" stroke-width="2.8"/>
<path clip-path="url(#clip861)" d="M1837.64 197.398 L1837.64 229.398 L1869.64 229.398 L1869.64 197.398 L1837.64 197.398 Z" fill="#e26f46" fill-rule="evenodd" fill-opacity="1" stroke="#000000" stroke-opacity="1" stroke-width="2.8"/>
<path clip-path="url(#clip861)" d="M1885.98 193.653 L1885.98 225.653 L1917.98 225.653 L1917.98 193.653 L1885.98 193.653 Z" fill="#e26f46" fill-rule="evenodd" fill-opacity="1" stroke="#000000" stroke-opacity="1" stroke-width="2.8"/>
<path clip-path="url(#clip861)" d="M1934.32 189.872 L1934.32 221.872 L1966.32 221.872 L1966.32 189.872 L1934.32 189.872 Z" fill="#e26f46" fill-rule="evenodd" fill-opacity="1" stroke="#000000" stroke-opacity="1" stroke-width="2.8"/>
<path clip-path="url(#clip861)" d="M1982.66 186.055 L1982.66 218.055 L2014.66 218.055 L2014.66 186.055 L1982.66 186.055 Z" fill="#e26f46" fill-rule="evenodd" fill-opacity="1" stroke="#000000" stroke-opacity="1" stroke-width="2.8"/>
<path clip-path="url(#clip861)" d="M2031 182.202 L2031 214.202 L2063 214.202 L2063 182.202 L2031 182.202 Z" fill="#e26f46" fill-rule="evenodd" fill-opacity="1" stroke="#000000" stroke-opacity="1" stroke-width="2.8"/>
<path clip-path="url(#clip861)" d="M2079.34 178.313 L2079.34 210.313 L2111.34 210.313 L2111.34 178.313 L2079.34 178.313 Z" fill="#e26f46" fill-rule="evenodd" fill-opacity="1" stroke="#000000" stroke-opacity="1" stroke-width="2.8"/>
<path clip-path="url(#clip861)" d="M2127.68 174.387 L2127.68 206.387 L2159.68 206.387 L2159.68 174.387 L2127.68 174.387 Z" fill="#e26f46" fill-rule="evenodd" fill-opacity="1" stroke="#000000" stroke-opacity="1" stroke-width="2.8"/>
<path clip-path="url(#clip861)" d="M2176.02 170.426 L2176.02 202.426 L2208.02 202.426 L2208.02 170.426 L2176.02 170.426 Z" fill="#e26f46" fill-rule="evenodd" fill-opacity="1" stroke="#000000" stroke-opacity="1" stroke-width="2.8"/>
<path clip-path="url(#clip861)" d="M2224.36 166.43 L2224.36 198.43 L2256.36 198.43 L2256.36 166.43 L2224.36 166.43 Z" fill="#e26f46" fill-rule="evenodd" fill-opacity="1" stroke="#000000" stroke-opacity="1" stroke-width="2.8"/>
<path clip-path="url(#clip861)" d="M2272.7 162.398 L2272.7 194.398 L2304.7 194.398 L2304.7 162.398 L2272.7 162.398 Z" fill="#e26f46" fill-rule="evenodd" fill-opacity="1" stroke="#000000" stroke-opacity="1" stroke-width="2.8"/>
<path clip-path="url(#clip861)" d="M2321.03 158.331 L2321.03 190.331 L2353.03 190.331 L2353.03 158.331 L2321.03 158.331 Z" fill="#e26f46" fill-rule="evenodd" fill-opacity="1" stroke="#000000" stroke-opacity="1" stroke-width="2.8"/>
<path clip-path="url(#clip861)" d="M2369.37 154.229 L2369.37 186.229 L2401.37 186.229 L2401.37 154.229 L2369.37 154.229 Z" fill="#e26f46" fill-rule="evenodd" fill-opacity="1" stroke="#000000" stroke-opacity="1" stroke-width="2.8"/>
<path clip-path="url(#clip861)" d="M2417.71 150.092 L2417.71 182.092 L2449.71 182.092 L2449.71 150.092 L2417.71 150.092 Z" fill="#e26f46" fill-rule="evenodd" fill-opacity="1" stroke="#000000" stroke-opacity="1" stroke-width="2.8"/>
<path clip-path="url(#clip861)" d="M2466.05 145.919 L2466.05 177.919 L2498.05 177.919 L2498.05 145.919 L2466.05 145.919 Z" fill="#e26f46" fill-rule="evenodd" fill-opacity="1" stroke="#000000" stroke-opacity="1" stroke-width="2.8"/>
<path clip-path="url(#clip861)" d="M2514.39 141.713 L2514.39 173.713 L2546.39 173.713 L2546.39 141.713 L2514.39 141.713 Z" fill="#e26f46" fill-rule="evenodd" fill-opacity="1" stroke="#000000" stroke-opacity="1" stroke-width="2.8"/>
<path clip-path="url(#clip861)" d="M2562.73 137.471 L2562.73 169.471 L2594.73 169.471 L2594.73 137.471 L2562.73 137.471 Z" fill="#e26f46" fill-rule="evenodd" fill-opacity="1" stroke="#000000" stroke-opacity="1" stroke-width="2.8"/>
<path clip-path="url(#clip861)" d="M2611.07 133.196 L2611.07 165.196 L2643.07 165.196 L2643.07 133.196 L2611.07 133.196 Z" fill="#e26f46" fill-rule="evenodd" fill-opacity="1" stroke="#000000" stroke-opacity="1" stroke-width="2.8"/>
<path clip-path="url(#clip861)" d="M2659.41 128.885 L2659.41 160.885 L2691.41 160.885 L2691.41 128.885 L2659.41 128.885 Z" fill="#e26f46" fill-rule="evenodd" fill-opacity="1" stroke="#000000" stroke-opacity="1" stroke-width="2.8"/>
<path clip-path="url(#clip861)" d="M2707.75 124.541 L2707.75 156.541 L2739.75 156.541 L2739.75 124.541 L2707.75 124.541 Z" fill="#e26f46" fill-rule="evenodd" fill-opacity="1" stroke="#000000" stroke-opacity="1" stroke-width="2.8"/>
<path clip-path="url(#clip860)" d="M1762.12 301.784 L1964.94 301.784 L1964.94 146.264 L1762.12 146.264  Z" fill="#ffffff" fill-rule="evenodd" fill-opacity="1"/>
<polyline clip-path="url(#clip860)" style="stroke:#000000; stroke-linecap:round; stroke-linejoin:round; stroke-width:4; stroke-opacity:1; fill:none" points="1762.12,301.784 1964.94,301.784 1964.94,146.264 1762.12,146.264 1762.12,301.784 "/>
<polyline clip-path="url(#clip860)" style="stroke:#009af9; stroke-linecap:round; stroke-linejoin:round; stroke-width:8; stroke-opacity:1; fill:none" points="1773.5,198.104 1841.82,198.104 "/>
<circle clip-path="url(#clip860)" cx="1807.66" cy="198.104" r="9.4889" fill="#009af9" fill-rule="evenodd" fill-opacity="1" stroke="#000000" stroke-opacity="1" stroke-width="3.98222"/>
<path clip-path="url(#clip860)" d="M1881.08 183.486 L1881.08 188.416 Q1878.72 186.217 1876.03 185.129 Q1873.37 184.041 1870.36 184.041 Q1864.44 184.041 1861.29 187.676 Q1858.14 191.287 1858.14 198.138 Q1858.14 204.967 1861.29 208.601 Q1864.44 212.212 1870.36 212.212 Q1873.37 212.212 1876.03 211.124 Q1878.72 210.037 1881.08 207.837 L1881.08 212.722 Q1878.62 214.388 1875.87 215.222 Q1873.14 216.055 1870.08 216.055 Q1862.24 216.055 1857.72 211.263 Q1853.21 206.449 1853.21 198.138 Q1853.21 189.805 1857.72 185.014 Q1862.24 180.199 1870.08 180.199 Q1873.19 180.199 1875.92 181.032 Q1878.67 181.842 1881.08 183.486 Z" fill="#000000" fill-rule="nonzero" fill-opacity="1" /><path clip-path="url(#clip860)" d="M1899.9 202.351 Q1894.74 202.351 1892.75 203.532 Q1890.75 204.712 1890.75 207.56 Q1890.75 209.828 1892.24 211.171 Q1893.74 212.49 1896.31 212.49 Q1899.85 212.49 1901.98 209.99 Q1904.13 207.467 1904.13 203.3 L1904.13 202.351 L1899.9 202.351 M1908.39 200.592 L1908.39 215.384 L1904.13 215.384 L1904.13 211.449 Q1902.68 213.81 1900.5 214.944 Q1898.32 216.055 1895.18 216.055 Q1891.19 216.055 1888.83 213.833 Q1886.5 211.587 1886.5 207.837 Q1886.5 203.462 1889.41 201.24 Q1892.35 199.018 1898.16 199.018 L1904.13 199.018 L1904.13 198.601 Q1904.13 195.662 1902.19 194.064 Q1900.27 192.444 1896.77 192.444 Q1894.55 192.444 1892.44 192.976 Q1890.34 193.509 1888.39 194.574 L1888.39 190.638 Q1890.73 189.736 1892.93 189.296 Q1895.13 188.833 1897.21 188.833 Q1902.84 188.833 1905.62 191.75 Q1908.39 194.666 1908.39 200.592 Z" fill="#000000" fill-rule="nonzero" fill-opacity="1" /><path clip-path="url(#clip860)" d="M1918.9 197.282 L1928.72 197.282 L1928.72 199.921 L1914.87 199.921 L1914.87 197.375 Q1915.66 196.657 1917.12 195.361 Q1925.08 188.301 1925.08 186.125 Q1925.08 184.597 1923.88 183.671 Q1922.68 182.722 1920.71 182.722 Q1919.5 182.722 1918.09 183.139 Q1916.68 183.532 1915.01 184.342 L1915.01 181.495 Q1916.8 180.847 1918.32 180.523 Q1919.87 180.199 1921.19 180.199 Q1924.55 180.199 1926.56 181.726 Q1928.58 183.254 1928.58 185.754 Q1928.58 188.972 1920.92 195.546 Q1919.62 196.657 1918.9 197.282 Z" fill="#000000" fill-rule="nonzero" fill-opacity="1" /><path clip-path="url(#clip860)" d="M1945.43 183.277 L1945.43 190.5 L1953.56 190.5 L1953.56 192.699 L1945.43 192.699 L1945.43 199.921 L1943 199.921 L1943 192.699 L1934.87 192.699 L1934.87 190.5 L1943 190.5 L1943 183.277 L1945.43 183.277 Z" fill="#000000" fill-rule="nonzero" fill-opacity="1" /><polyline clip-path="url(#clip860)" style="stroke:#e26f46; stroke-linecap:round; stroke-linejoin:round; stroke-width:8; stroke-opacity:1; fill:none" points="1773.5,249.944 1841.82,249.944 "/>
<path clip-path="url(#clip860)" d="M1797.12 239.4 L1797.12 260.487 L1818.2 260.487 L1818.2 239.4 L1797.12 239.4 Z" fill="#e26f46" fill-rule="evenodd" fill-opacity="1" stroke="#000000" stroke-opacity="1" stroke-width="3.98222"/>
<path clip-path="url(#clip860)" d="M1881.08 235.326 L1881.08 240.256 Q1878.72 238.057 1876.03 236.969 Q1873.37 235.881 1870.36 235.881 Q1864.44 235.881 1861.29 239.516 Q1858.14 243.127 1858.14 249.978 Q1858.14 256.807 1861.29 260.441 Q1864.44 264.052 1870.36 264.052 Q1873.37 264.052 1876.03 262.964 Q1878.72 261.877 1881.08 259.677 L1881.08 264.562 Q1878.62 266.228 1875.87 267.062 Q1873.14 267.895 1870.08 267.895 Q1862.24 267.895 1857.72 263.103 Q1853.21 258.289 1853.21 249.978 Q1853.21 241.645 1857.72 236.854 Q1862.24 232.039 1870.08 232.039 Q1873.19 232.039 1875.92 232.872 Q1878.67 233.682 1881.08 235.326 Z" fill="#000000" fill-rule="nonzero" fill-opacity="1" /><path clip-path="url(#clip860)" d="M1899.9 254.191 Q1894.74 254.191 1892.75 255.372 Q1890.75 256.552 1890.75 259.4 Q1890.75 261.668 1892.24 263.011 Q1893.74 264.33 1896.31 264.33 Q1899.85 264.33 1901.98 261.83 Q1904.13 259.307 1904.13 255.14 L1904.13 254.191 L1899.9 254.191 M1908.39 252.432 L1908.39 267.224 L1904.13 267.224 L1904.13 263.289 Q1902.68 265.65 1900.5 266.784 Q1898.32 267.895 1895.18 267.895 Q1891.19 267.895 1888.83 265.673 Q1886.5 263.427 1886.5 259.677 Q1886.5 255.302 1889.41 253.08 Q1892.35 250.858 1898.16 250.858 L1904.13 250.858 L1904.13 250.441 Q1904.13 247.502 1902.19 245.904 Q1900.27 244.284 1896.77 244.284 Q1894.55 244.284 1892.44 244.816 Q1890.34 245.349 1888.39 246.414 L1888.39 242.478 Q1890.73 241.576 1892.93 241.136 Q1895.13 240.673 1897.21 240.673 Q1902.84 240.673 1905.62 243.59 Q1908.39 246.506 1908.39 252.432 Z" fill="#000000" fill-rule="nonzero" fill-opacity="1" /><path clip-path="url(#clip860)" d="M1917.17 231.205 L1921.43 231.205 L1921.43 267.224 L1917.17 267.224 L1917.17 231.205 Z" fill="#000000" fill-rule="nonzero" fill-opacity="1" /></svg>
